<svg width="60" height="61" viewBox="0 0 60 61" fill="none" xmlns="http://www.w3.org/2000/svg">
<g clip-path="url(#clip0)">
<path d="M37.0312 31.3438C36.3844 31.3438 35.8594 31.8688 35.8594 32.5156C35.8594 33.1624 36.3844 33.6875 37.0312 33.6875C37.6781 33.6875 38.2031 33.1624 38.2031 32.5156C38.2031 31.8688 37.6781 31.3438 37.0312 31.3438Z" fill="#D91D18"/>
<path d="M11.9734 44.2092L0.254623 58.9748C-0.0250708 59.3268 -0.0781713 59.808 0.117294 60.2126C0.312759 60.6177 0.722915 60.875 1.17244 60.875H58.8287C59.2782 60.875 59.6884 60.6177 59.8838 60.2126C60.0798 59.808 60.0262 59.3268 59.7465 58.9748L48.0278 44.2092C47.8057 43.929 47.4675 43.7656 47.1099 43.7656H36.8446L45.6085 30.0199C47.6643 26.9378 48.7506 23.3434 48.7506 19.625C48.7506 9.28641 40.3396 0.875 30.0006 0.875C19.6615 0.875 11.2506 9.28641 11.2506 19.625C11.2506 23.3434 12.3368 26.9373 14.3927 30.0199L23.1565 43.7656H12.8912C12.5337 43.7656 12.1958 43.929 11.9734 44.2092ZM7.59807 53.4922H14.6838L10.6848 58.5312H3.59859L7.59807 53.4922ZM24.6511 46.1094L27.8637 51.1484H19.5361L23.5356 46.1094H24.6511ZM35.3504 46.1094H36.466L40.465 51.1484H32.1379L35.3504 46.1094ZM42.3254 53.4922L46.3244 58.5312H13.6767L17.6762 53.4922H42.3254ZM49.3168 58.5312L45.3173 53.4922H52.4035L56.4025 58.5312H49.3168ZM50.5432 51.1484H43.4574L39.458 46.1094H46.5441L50.5432 51.1484ZM16.3491 28.729C14.5469 26.0309 13.5943 22.8829 13.5943 19.625C13.5943 10.5787 20.9542 3.21875 30.0006 3.21875C39.0469 3.21875 46.4068 10.5787 46.4068 19.625C46.4068 22.8829 45.4542 26.0309 43.6525 28.729C43.6474 28.7359 43.6433 28.7427 43.6387 28.7496C42.8692 29.9567 30.5934 49.2112 30.0006 50.1404C28.5096 47.8017 17.8808 31.1309 16.3624 28.7496C16.3583 28.7427 16.3537 28.7359 16.3491 28.729ZM20.5432 46.1094L16.5441 51.1484H9.45796L13.4574 46.1094H20.5432Z" fill="#D91D18"/>
<path d="M30 31.3438C36.4334 31.3438 41.7188 26.1339 41.7188 19.625C41.7188 13.1632 36.4618 7.90625 30 7.90625C23.5382 7.90625 18.2812 13.1632 18.2812 19.625C18.2812 26.1358 23.5684 31.3438 30 31.3438ZM30 10.25C35.1695 10.25 39.375 14.4555 39.375 19.625C39.375 24.8426 35.1357 29 30 29C24.863 29 20.625 24.8426 20.625 19.625C20.625 14.4555 24.8305 10.25 30 10.25Z" fill="#D91D18"/>
<path d="M34.936 35.3428C34.3822 35.0086 33.6616 35.1871 33.3275 35.7415L28.9961 42.9275C28.6619 43.4818 28.8405 44.2019 29.3948 44.536C29.9515 44.8716 30.6706 44.6894 31.0034 44.1373L35.3348 36.9514C35.6689 36.397 35.4904 35.6769 34.936 35.3428Z" fill="#D91D18"/>
</g>
<defs>
<clipPath id="clip0">
<rect width="60" height="60" fill="white" transform="translate(0 0.875)"/>
</clipPath>
</defs>
</svg>
