<svg width="61" height="61" viewBox="0 0 61 61" fill="none" xmlns="http://www.w3.org/2000/svg">
<path d="M48.4902 32.5806V16.1496C48.4898 16.0025 48.4507 15.8581 48.3768 15.7309C48.3028 15.6037 48.1967 15.4982 48.0691 15.4251L25.1982 2.22062C25.0715 2.14742 24.9276 2.10889 24.7812 2.10889C24.6349 2.10889 24.491 2.14742 24.3643 2.22062L1.5032 15.4195C1.37266 15.4916 1.26383 15.5973 1.18804 15.7257C1.11225 15.8541 1.07227 16.0005 1.07227 16.1496V44.8506C1.07227 44.997 1.11081 45.1408 1.184 45.2675C1.2572 45.3943 1.36248 45.4996 1.48926 45.5728L24.3643 58.7795C24.491 58.8527 24.6349 58.8913 24.7812 58.8913C24.9276 58.8913 25.0715 58.8527 25.1982 58.7795L37.4843 51.6871C38.6489 53.4134 40.2337 54.8148 42.0895 55.7596C43.9453 56.7044 46.0109 57.1614 48.092 57.0876C50.1731 57.0137 52.2012 56.4115 53.9854 55.3376C55.7695 54.2637 57.251 52.7535 58.2905 50.949C59.3299 49.1446 59.893 47.1053 59.9269 45.0232C59.9607 42.941 59.4641 40.8845 58.4839 39.0473C57.5036 37.21 56.0719 35.6524 54.3236 34.5211C52.5753 33.3898 50.5678 32.722 48.4902 32.5806ZM38.0209 11.5498L16.8156 23.7925L12.6539 21.3894L33.8587 9.14674L38.0209 11.5498ZM15.9648 25.2131V40.4999L14.3928 38.7273C14.2743 38.5965 14.1184 38.5052 13.9463 38.4659C13.7742 38.4266 13.5942 38.4411 13.4306 38.5075L11.7949 39.1754V22.8331L15.9648 25.2131ZM24.7812 3.90586L32.1907 8.18373L10.9854 20.4267L3.57648 16.1485L24.7812 3.90586ZM23.9473 56.6128L2.74023 44.3691V17.5917L10.127 21.8708V40.4221C10.1296 40.56 10.1659 40.6952 10.2325 40.816C10.2991 40.9368 10.394 41.0395 10.5092 41.1154C10.6244 41.1913 10.7563 41.238 10.8936 41.2515C11.0309 41.265 11.1694 41.2449 11.2972 41.193L13.5195 40.2766L16.1474 43.2606C16.2258 43.3496 16.3223 43.4208 16.4305 43.4696C16.5386 43.5184 16.6559 43.5436 16.7745 43.5436C16.879 43.5436 16.9827 43.5254 17.081 43.4899C17.2409 43.4306 17.3791 43.3244 17.4776 43.1851C17.5761 43.0459 17.6302 42.8801 17.6328 42.7096V26.1761L23.9473 29.8354V56.6128ZM24.7812 28.3913L18.4836 24.7554L39.689 12.5128L45.9859 16.1484L24.7812 28.3913ZM25.6152 56.6132V29.8354L46.8223 17.5915V32.5806C44.8122 32.7178 42.8668 33.3477 41.1579 34.4147C39.4489 35.4817 38.0289 36.953 37.0232 38.6988C36.0175 40.4446 35.457 42.4111 35.3913 44.4247C35.3255 46.4384 35.7565 48.4373 36.6462 50.2449L25.6152 56.6132ZM47.6562 55.427C45.5591 55.427 43.509 54.8052 41.7653 53.64C40.0215 52.4749 38.6624 50.8189 37.8599 48.8813C37.0573 46.9438 36.8473 44.8118 37.2565 42.7549C37.6656 40.698 38.6755 38.8086 40.1584 37.3257C41.6414 35.8428 43.5307 34.8329 45.5876 34.4238C47.6445 34.0146 49.7765 34.2246 51.714 35.0272C53.6516 35.8297 55.3076 37.1888 56.4728 38.9325C57.6379 40.6763 58.2598 42.7263 58.2598 44.8235C58.2496 47.6326 57.1291 50.3237 55.1428 52.3099C53.1564 54.2962 50.4653 55.4166 47.6562 55.4267V55.427Z" fill="#D91D18"/>
<path d="M31.7943 29.8608C31.7035 29.7647 31.5912 29.6915 31.4667 29.6473C31.3421 29.6031 31.2088 29.5891 31.0778 29.6065C30.9467 29.6238 30.8217 29.672 30.7129 29.7472C30.6041 29.8223 30.5147 29.9221 30.4521 30.0385L28.4386 33.7843C28.3703 33.9113 28.3361 34.0538 28.3394 34.198C28.3426 34.3421 28.3832 34.4829 28.4571 34.6067C28.531 34.7305 28.6357 34.8331 28.7611 34.9043C28.8864 34.9756 29.0281 35.0131 29.1723 35.0132C29.3251 35.0136 29.4752 34.9731 29.607 34.8958C29.7388 34.8186 29.8476 34.7074 29.9219 34.574L30.3809 33.7464V40.9153C30.3809 41.1365 30.4687 41.3487 30.6251 41.5051C30.7815 41.6615 30.9936 41.7493 31.2148 41.7493C31.436 41.7493 31.6481 41.6615 31.8045 41.5051C31.961 41.3487 32.0488 41.1365 32.0488 40.9153V32.5315L32.7267 33.2648C32.8012 33.3444 32.8907 33.4084 32.99 33.4533C33.0894 33.4981 33.1966 33.5228 33.3056 33.5259C33.4145 33.529 33.523 33.5106 33.6247 33.4716C33.7265 33.4326 33.8195 33.3738 33.8985 33.2987C33.978 33.2232 34.0418 33.1329 34.0863 33.0328C34.1309 32.9327 34.1553 32.8248 34.1581 32.7152C34.1609 32.6057 34.1421 32.4967 34.1028 32.3944C34.0634 32.2921 34.0043 32.1986 33.9289 32.1192L31.7943 29.8608Z" fill="#D91D18"/>
<path d="M4.88477 40.3232C4.66358 40.3232 4.45145 40.4111 4.29505 40.5675C4.13865 40.7239 4.05078 40.936 4.05078 41.1572V44.2454C4.05078 44.4665 4.13865 44.6787 4.29505 44.8351C4.45145 44.9915 4.66358 45.0793 4.88477 45.0793C5.10595 45.0793 5.31808 44.9915 5.47448 44.8351C5.63088 44.6787 5.71875 44.4665 5.71875 44.2454V41.1572C5.71875 40.936 5.63088 40.7239 5.47448 40.5675C5.31808 40.4111 5.10595 40.3232 4.88477 40.3232Z" fill="#D91D18"/>
<path d="M8.2207 42.6106C7.99952 42.6106 7.78739 42.6985 7.63099 42.8549C7.47458 43.0113 7.38672 43.2234 7.38672 43.4446V46.2265C7.38672 46.4477 7.47458 46.6598 7.63099 46.8162C7.78739 46.9726 7.99952 47.0605 8.2207 47.0605C8.44189 47.0605 8.65402 46.9726 8.81042 46.8162C8.96682 46.6598 9.05469 46.4477 9.05469 46.2265V43.4446C9.05469 43.2234 8.96682 43.0113 8.81042 42.8549C8.65402 42.6985 8.44189 42.6106 8.2207 42.6106Z" fill="#D91D18"/>
<path d="M11.6758 44.8982C11.4546 44.8982 11.2425 44.9861 11.0861 45.1425C10.9297 45.2989 10.8418 45.511 10.8418 45.7322V48.1817C10.8418 48.4029 10.9297 48.615 11.0861 48.7714C11.2425 48.9278 11.4546 49.0157 11.6758 49.0157C11.897 49.0157 12.1091 48.9278 12.2655 48.7714C12.4219 48.615 12.5098 48.4029 12.5098 48.1817V45.7322C12.5098 45.511 12.4219 45.2989 12.2655 45.1425C12.1091 44.9861 11.897 44.8982 11.6758 44.8982Z" fill="#D91D18"/>
<path d="M15.0117 47.1855C14.7905 47.1855 14.5784 47.2734 14.422 47.4298C14.2656 47.5862 14.1777 47.7983 14.1777 48.0195V50.1367C14.1777 50.3578 14.2656 50.57 14.422 50.7264C14.5784 50.8828 14.7905 50.9706 15.0117 50.9706C15.2329 50.9706 15.445 50.8828 15.6014 50.7264C15.7578 50.57 15.8457 50.3578 15.8457 50.1367V48.0195C15.8457 47.7983 15.7578 47.5862 15.6014 47.4298C15.445 47.2734 15.2329 47.1855 15.0117 47.1855Z" fill="#D91D18"/>
<path d="M17.6328 52.1371C17.6328 52.3583 17.7207 52.5704 17.8771 52.7268C18.0335 52.8833 18.2456 52.9711 18.4668 52.9711C18.688 52.9711 18.9001 52.8833 19.0565 52.7268C19.2129 52.5704 19.3008 52.3583 19.3008 52.1371V50.3071C19.3008 50.0859 19.2129 49.8738 19.0565 49.7174C18.9001 49.561 18.688 49.4731 18.4668 49.4731C18.2456 49.4731 18.0335 49.561 17.8771 49.7174C17.7207 49.8738 17.6328 50.0859 17.6328 50.3071V52.1371Z" fill="#D91D18"/>
<path d="M32.9018 42.1122L29.1025 44.3056C28.9109 44.4162 28.7711 44.5984 28.7139 44.812C28.6566 45.0257 28.6866 45.2533 28.7972 45.4449C28.9077 45.6364 29.0899 45.7762 29.3036 45.8335C29.5172 45.8907 29.7449 45.8608 29.9364 45.7502L33.7358 43.5568C33.9274 43.4462 34.0672 43.264 34.1244 43.0504C34.1817 42.8367 34.1517 42.6091 34.0411 42.4175C33.9305 42.226 33.7484 42.0862 33.5347 42.0289C33.3211 41.9717 33.0934 42.0016 32.9018 42.1122Z" fill="#D91D18"/>
<path d="M52.0372 40.4423C51.9597 40.3648 51.8678 40.3034 51.7666 40.2615C51.6654 40.2196 51.557 40.198 51.4474 40.198C51.3379 40.198 51.2295 40.2196 51.1283 40.2615C51.0271 40.3034 50.9351 40.3648 50.8577 40.4423L47.6563 43.6436L44.455 40.4423C44.2985 40.2859 44.0864 40.198 43.8652 40.198C43.644 40.198 43.4319 40.2859 43.2755 40.4423C43.1191 40.5987 43.0312 40.8108 43.0312 41.032C43.0312 41.2532 43.1191 41.4654 43.2755 41.6218L46.4768 44.8231L43.2753 48.0244C43.1189 48.1808 43.0311 48.393 43.0311 48.6142C43.0311 48.8354 43.1189 49.0475 43.2753 49.2039C43.4318 49.3603 43.6439 49.4482 43.8651 49.4482C44.0863 49.4482 44.2984 49.3603 44.4548 49.2039L47.6563 46.0026L50.8576 49.2039C51.014 49.3603 51.2261 49.4482 51.4473 49.4482C51.6685 49.4482 51.8807 49.3603 52.0371 49.2039C52.1935 49.0475 52.2813 48.8354 52.2813 48.6142C52.2813 48.393 52.1935 48.1808 52.0371 48.0244L48.8358 44.8231L52.0372 41.6218C52.1146 41.5443 52.1761 41.4524 52.218 41.3512C52.2599 41.25 52.2815 41.1416 52.2815 41.032C52.2815 40.9225 52.2599 40.8141 52.218 40.7129C52.1761 40.6117 52.1146 40.5197 52.0372 40.4423Z" fill="#D91D18"/>
</svg>
