<svg width="59" height="59" viewBox="0 0 59 59" fill="none" xmlns="http://www.w3.org/2000/svg">
<path d="M53.4688 17.5156H46.0938V19.3594H50.2773C49.9519 19.9193 49.7807 20.5555 49.7812 21.2031V28.0501L34.1179 37.2395L28.2533 32.2541C28.0866 32.1124 27.875 32.0347 27.6562 32.0347C27.4375 32.0347 27.2259 32.1124 27.0592 32.2541L21.1946 37.239L5.53125 28.0501V21.2031C5.53183 20.7143 5.72627 20.2457 6.07191 19.9C6.41756 19.5544 6.88618 19.36 7.375 19.3594H9.21875V17.5156H7.375C6.39735 17.5167 5.46006 17.9056 4.76876 18.5969C4.07745 19.2882 3.6886 20.2255 3.6875 21.2031V52.5469H3.68957C3.68866 52.668 3.71181 52.7881 3.75768 52.9003C3.80355 53.0124 3.87124 53.1143 3.95681 53.2C4.04237 53.2858 4.14412 53.3537 4.25614 53.3998C4.36816 53.446 4.48823 53.4694 4.60938 53.4687H50.7031C50.8243 53.4694 50.9443 53.446 51.0564 53.3998C51.1684 53.3537 51.2701 53.2858 51.3557 53.2C51.4413 53.1143 51.5089 53.0124 51.5548 52.9003C51.6007 52.7881 51.6238 52.668 51.6229 52.5469H51.625V21.2031C51.625 20.7141 51.8193 20.2452 52.165 19.8994C52.5108 19.5536 52.9798 19.3594 53.4688 19.3594C53.9577 19.3594 54.4267 19.5536 54.7725 19.8994C55.1182 20.2452 55.3125 20.7141 55.3125 21.2031V24.8906H52.5469V26.7344H56.2344C56.4789 26.7344 56.7134 26.6372 56.8862 26.4644C57.0591 26.2915 57.1562 26.057 57.1562 25.8125V21.2031C57.1552 20.2255 56.7663 19.2882 56.075 18.5969C55.3837 17.9056 54.4464 17.5167 53.4688 17.5156ZM49.7812 30.1878V50.5533L35.6059 38.5043L49.7812 30.1878ZM19.7066 38.5043L5.53125 50.5533V30.1878L19.7066 38.5043ZM7.11734 51.625L27.6562 34.167L48.1952 51.625H7.11734Z" fill="#D91D18"/>
<path d="M12.9062 7.375H19.3594V11.0625C19.3594 11.307 19.2622 11.5415 19.0894 11.7144C18.9165 11.8872 18.682 11.9844 18.4375 11.9844C18.193 11.9844 17.9585 11.8872 17.7856 11.7144C17.6128 11.5415 17.5156 11.307 17.5156 11.0625V9.21875H15.6719V11.0625C15.6719 11.796 15.9633 12.4994 16.4819 13.0181C17.0006 13.5367 17.704 13.8281 18.4375 13.8281C19.171 13.8281 19.8744 13.5367 20.3931 13.0181C20.9117 12.4994 21.2031 11.796 21.2031 11.0625V7.375H38.7188V32.2656H40.5625V10.1406H42.4062V30.4219H44.25V9.21875C44.25 8.97425 44.1529 8.73977 43.98 8.56689C43.8071 8.394 43.5726 8.29688 43.3281 8.29688H40.5625V6.45312C40.5625 6.20863 40.4654 5.97415 40.2925 5.80126C40.1196 5.62838 39.8851 5.53125 39.6406 5.53125H21.2031C21.2031 4.55326 20.8146 3.61533 20.1231 2.92379C19.4315 2.23225 18.4936 1.84375 17.5156 1.84375C16.5376 1.84375 15.5997 2.23225 14.9082 2.92379C14.2166 3.61533 13.8281 4.55326 13.8281 5.53125H11.9844C11.7399 5.53125 11.5054 5.62838 11.3325 5.80126C11.1596 5.97415 11.0625 6.20863 11.0625 6.45312V30.4219H12.9062V7.375ZM17.5156 3.6875C18.0044 3.68808 18.4731 3.88252 18.8187 4.22816C19.1644 4.57381 19.3588 5.04243 19.3594 5.53125H15.6719C15.6725 5.04243 15.8669 4.57381 16.2125 4.22816C16.5582 3.88252 17.0268 3.68808 17.5156 3.6875Z" fill="#D91D18"/>
<path d="M13.8281 55.3125H40.5625V57.1562H13.8281V55.3125Z" fill="#D91D18"/>
<path d="M42.4062 55.3125H44.25V57.1562H42.4062V55.3125Z" fill="#D91D18"/>
<path d="M17.5156 16.5938H19.3594V18.4375H17.5156V16.5938Z" fill="#D91D18"/>
<path d="M21.2031 16.5938H35.9531V18.4375H21.2031V16.5938Z" fill="#D91D18"/>
<path d="M15.6719 20.2812H35.9531V22.125H15.6719V20.2812Z" fill="#D91D18"/>
<path d="M15.6719 23.9688H35.9531V25.8125H15.6719V23.9688Z" fill="#D91D18"/>
<path d="M15.6719 27.6562H33.1875V29.5H15.6719V27.6562Z" fill="#D91D18"/>
<path d="M34.1094 10.1406H35.9531V11.9844H34.1094V10.1406Z" fill="#D91D18"/>
<path d="M30.4219 10.1406H32.2656V11.9844H30.4219V10.1406Z" fill="#D91D18"/>
</svg>
