<svg width="61" height="61" viewBox="0 0 61 61" fill="none" xmlns="http://www.w3.org/2000/svg">
<path d="M56.3435 26.6875H53.3758C53.2068 26.0756 52.8431 25.5353 52.3397 25.1484C51.8364 24.7615 51.2208 24.549 50.5859 24.543H47.418V16.796C47.4215 16.6511 47.3865 16.5078 47.3165 16.3809C47.2464 16.254 47.1439 16.148 47.0193 16.0738L24.6713 3.16585C24.5453 3.09264 24.4022 3.05408 24.2566 3.05408C24.1109 3.05408 23.9678 3.09264 23.8418 3.16585L1.48688 16.0738C1.36039 16.1471 1.25546 16.2525 1.18267 16.3793C1.10988 16.5061 1.0718 16.6498 1.07227 16.796V42.612C1.07227 42.7584 1.11081 42.9022 1.18401 43.029C1.25721 43.1558 1.36248 43.261 1.48926 43.3342L23.8465 56.2422C23.9733 56.3154 24.1171 56.3539 24.2635 56.3539C24.4136 56.354 24.5613 56.3155 24.6924 56.2422L36.457 49.4563V54.3618C36.4558 54.8288 36.5473 55.2915 36.7261 55.7229C36.9048 56.1544 37.1674 56.5461 37.4986 56.8754C37.8299 57.2047 38.2231 57.465 38.6556 57.6413C39.0881 57.8176 39.5512 57.9063 40.0183 57.9024H56.3435C56.8117 57.9067 57.2762 57.8185 57.7102 57.6426C58.1442 57.4668 58.5391 57.2068 58.8722 56.8777C59.2053 56.5487 59.4701 56.157 59.6512 55.7252C59.8324 55.2934 59.9264 54.83 59.9277 54.3618V30.2835C59.9272 29.332 59.5497 28.4194 58.878 27.7455C58.2063 27.0716 57.295 26.6912 56.3435 26.6875ZM50.6156 26.211C50.9366 26.211 51.2446 26.3385 51.4716 26.5656C51.6986 26.7926 51.8262 27.1005 51.8262 27.4216V27.5024C51.8262 27.8234 51.6986 28.1313 51.4716 28.3584C51.2446 28.5854 50.9366 28.7129 50.6156 28.7129H45.7692C45.4481 28.7129 45.1402 28.5854 44.9132 28.3584C44.6861 28.1313 44.5586 27.8234 44.5586 27.5024V27.4216C44.5586 27.1005 44.6861 26.7926 44.9132 26.5656C45.1402 26.3385 45.4481 26.211 45.7692 26.211H50.6156ZM24.2635 4.8511L33.5533 10.2146L12.8655 22.1587L3.57577 16.7952L24.2635 4.8511ZM23.4707 54.0754L2.74024 42.1304V18.2387L23.4707 30.1836V54.0754ZM24.2635 28.7391L14.5335 23.1215L35.2213 11.1776L44.9518 16.7952L24.2635 28.7391ZM36.457 30.2835V47.5304L25.1387 54.0754V30.1836L45.75 18.2387V24.543H45.7759C45.141 24.549 44.5254 24.7615 44.022 25.1484C43.5187 25.5353 43.155 26.0756 42.9859 26.6875H40.0183C39.0692 26.6922 38.1608 27.0736 37.4929 27.7479C36.8251 28.4223 36.4524 29.3344 36.457 30.2835ZM58.2598 54.3618C58.2586 54.6111 58.208 54.8576 58.1107 55.0872C58.0135 55.3167 57.8716 55.5246 57.6933 55.6989C57.515 55.8731 57.3039 56.0102 57.0721 56.1021C56.8404 56.194 56.5928 56.239 56.3435 56.2344H40.0183C39.7702 56.2386 39.5238 56.1932 39.2936 56.1008C39.0634 56.0084 38.8539 55.871 38.6775 55.6965C38.5012 55.5221 38.3614 55.3141 38.2665 55.0849C38.1717 54.8557 38.1235 54.6098 38.125 54.3618V30.2835C38.1225 30.0325 38.1695 29.7835 38.2633 29.5507C38.3571 29.3179 38.496 29.1059 38.6718 28.9268C38.8477 28.7478 39.0571 28.6051 39.2881 28.5071C39.5192 28.4091 39.7673 28.3576 40.0183 28.3555H43.0185C43.1973 28.9458 43.5627 29.4623 44.0598 29.8275C44.557 30.1926 45.1591 30.3868 45.7759 30.3809H50.5859C51.2027 30.3868 51.8048 30.1926 52.3019 29.8275C52.799 29.4623 53.1644 28.9458 53.3432 28.3555H56.3435C56.8528 28.3587 57.3401 28.5632 57.6991 28.9244C58.0581 29.2856 58.2597 29.7742 58.2598 30.2835V54.3618Z" fill="#D91D18"/>
<path d="M40.9783 38.7207H41.8513C42.0725 38.7207 42.2846 38.6328 42.441 38.4764C42.5974 38.32 42.6852 38.1079 42.6852 37.8867C42.6852 37.6655 42.5974 37.4534 42.441 37.297C42.2846 37.1406 42.0725 37.0527 41.8513 37.0527H41.8184V34.7891H44.1186C44.171 34.9567 44.2769 35.1026 44.4201 35.2044C44.5633 35.3061 44.7359 35.358 44.9115 35.3522C45.133 35.3528 45.3456 35.2656 45.5028 35.1096C45.66 34.9536 45.7489 34.7416 45.75 34.5202V33.959C45.7481 33.7365 45.6586 33.5237 45.5007 33.3668C45.3429 33.2099 45.1295 33.1216 44.907 33.1211H40.9783C40.8689 33.1217 40.7607 33.1438 40.6598 33.1862C40.559 33.2286 40.4675 33.2905 40.3906 33.3684C40.3137 33.4462 40.2529 33.5384 40.2117 33.6398C40.1705 33.7411 40.1497 33.8496 40.1504 33.959V37.8877C40.1498 37.9968 40.1707 38.105 40.212 38.2061C40.2533 38.3071 40.3142 38.399 40.3911 38.4764C40.4681 38.5538 40.5595 38.6152 40.6603 38.6572C40.7611 38.6991 40.8692 38.7207 40.9783 38.7207Z" fill="#D91D18"/>
<path d="M40.9844 46.3457H44.916C45.1372 46.3457 45.3493 46.2578 45.5057 46.1014C45.6621 45.945 45.75 45.7329 45.75 45.5117V41.5801C45.75 41.3589 45.6621 41.1468 45.5057 40.9904C45.3493 40.834 45.1372 40.7461 44.916 40.7461H40.9844C40.7632 40.7461 40.5511 40.834 40.3947 40.9904C40.2383 41.1468 40.1504 41.3589 40.1504 41.5801V45.5117C40.1504 45.7329 40.2383 45.945 40.3947 46.1014C40.5511 46.2578 40.7632 46.3457 40.9844 46.3457ZM41.8184 42.4141H44.082V44.6777H41.8184V42.4141Z" fill="#D91D18"/>
<path d="M41.8514 52.3027H41.8184V50.0391H44.0736C44.0779 50.2584 44.168 50.4673 44.3245 50.6209C44.4811 50.7746 44.6916 50.8608 44.911 50.861C45.1303 50.8612 45.341 50.7755 45.4979 50.6221C45.6547 50.4688 45.7453 50.26 45.75 50.0407V49.2371C45.7491 49.0117 45.6608 48.7953 45.5035 48.6338C45.3462 48.4722 45.1323 48.378 44.907 48.3711H40.9783C40.7545 48.3786 40.5425 48.4735 40.3878 48.6353C40.233 48.7972 40.1478 49.0132 40.1504 49.2371V53.1658C40.1503 53.2735 40.1718 53.3801 40.2136 53.4793C40.2555 53.5785 40.3169 53.6683 40.3941 53.7434C40.4713 53.8185 40.5628 53.8773 40.6631 53.9163C40.7635 53.9553 40.8707 53.9738 40.9783 53.9707H41.8514C42.0725 53.9707 42.2847 53.8828 42.4411 53.7264C42.5975 53.57 42.6853 53.3579 42.6853 53.1367C42.6853 52.9155 42.5975 52.7034 42.4411 52.547C42.2847 52.3906 42.0725 52.3027 41.8514 52.3027Z" fill="#D91D18"/>
<path d="M46.8271 34.1448L44.3848 36.5872L43.6418 35.8441C43.5643 35.7666 43.4724 35.7052 43.3712 35.6633C43.27 35.6214 43.1616 35.5998 43.052 35.5998C42.9425 35.5998 42.8341 35.6214 42.7329 35.6633C42.6317 35.7052 42.5397 35.7666 42.4623 35.8441C42.3849 35.9215 42.3234 36.0135 42.2815 36.1147C42.2396 36.2159 42.218 36.3243 42.218 36.4338C42.218 36.5434 42.2396 36.6518 42.2815 36.753C42.3234 36.8542 42.3849 36.9461 42.4623 37.0236L43.7951 38.3563C43.8726 38.4337 43.9645 38.4952 44.0657 38.5371C44.1669 38.579 44.2753 38.6006 44.3849 38.6006C44.4944 38.6006 44.6029 38.579 44.704 38.5371C44.8052 38.4952 44.8972 38.4337 44.9746 38.3563L48.007 35.3239C48.1634 35.1675 48.2513 34.9554 48.2513 34.7342C48.2513 34.513 48.1634 34.3008 48.007 34.1444C47.8506 33.988 47.6384 33.9001 47.4172 33.9001C47.196 33.9001 46.9839 33.988 46.8275 34.1444L46.8271 34.1448Z" fill="#D91D18"/>
<path d="M46.8271 49.5436L44.3848 51.986L43.6418 51.2429C43.5643 51.1654 43.4724 51.104 43.3712 51.0621C43.27 51.0202 43.1616 50.9986 43.052 50.9986C42.9425 50.9986 42.8341 51.0202 42.7329 51.0621C42.6317 51.104 42.5397 51.1654 42.4623 51.2429C42.3849 51.3203 42.3234 51.4123 42.2815 51.5135C42.2396 51.6147 42.218 51.7231 42.218 51.8326C42.218 51.9422 42.2396 52.0506 42.2815 52.1518C42.3234 52.253 42.3849 52.3449 42.4623 52.4224L43.7951 53.7551C43.8726 53.8325 43.9645 53.894 44.0657 53.9359C44.1669 53.9778 44.2753 53.9994 44.3849 53.9994C44.4944 53.9994 44.6029 53.9778 44.704 53.9359C44.8052 53.894 44.8972 53.8325 44.9746 53.7551L48.007 50.7227C48.1634 50.5663 48.2513 50.3542 48.2513 50.133C48.2513 49.9118 48.1634 49.6996 48.007 49.5432C47.8506 49.3868 47.6384 49.299 47.4172 49.299C47.196 49.299 46.9839 49.3868 46.8275 49.5432L46.8271 49.5436Z" fill="#D91D18"/>
<path d="M55.3833 35.1465H50.1452C49.924 35.1465 49.7119 35.2344 49.5555 35.3908C49.3991 35.5472 49.3112 35.7593 49.3112 35.9805C49.3112 36.2017 49.3991 36.4138 49.5555 36.5702C49.7119 36.7266 49.924 36.8145 50.1452 36.8145H55.3833C55.6045 36.8145 55.8167 36.7266 55.9731 36.5702C56.1295 36.4138 56.2173 36.2017 56.2173 35.9805C56.2173 35.7593 56.1295 35.5472 55.9731 35.3908C55.8167 35.2344 55.6045 35.1465 55.3833 35.1465Z" fill="#D91D18"/>
<path d="M55.3833 42.7715H50.1452C49.924 42.7715 49.7119 42.8594 49.5555 43.0158C49.3991 43.1722 49.3112 43.3843 49.3112 43.6055C49.3112 43.8267 49.3991 44.0388 49.5555 44.1952C49.7119 44.3516 49.924 44.4395 50.1452 44.4395H55.3833C55.6045 44.4395 55.8167 44.3516 55.9731 44.1952C56.1295 44.0388 56.2173 43.8267 56.2173 43.6055C56.2173 43.3843 56.1295 43.1722 55.9731 43.0158C55.8167 42.8594 55.6045 42.7715 55.3833 42.7715Z" fill="#D91D18"/>
<path d="M55.3833 50.3965H50.1452C49.924 50.3965 49.7119 50.4844 49.5555 50.6408C49.3991 50.7972 49.3112 51.0093 49.3112 51.2305C49.3112 51.4517 49.3991 51.6638 49.5555 51.8202C49.7119 51.9766 49.924 52.0645 50.1452 52.0645H55.3833C55.6045 52.0645 55.8167 51.9766 55.9731 51.8202C56.1295 51.6638 56.2173 51.4517 56.2173 51.2305C56.2173 51.0093 56.1295 50.7972 55.9731 50.6408C55.8167 50.4844 55.6045 50.3965 55.3833 50.3965Z" fill="#D91D18"/>
</svg>
