<svg width="61" height="61" viewBox="0 0 61 61" fill="none" xmlns="http://www.w3.org/2000/svg">
<path d="M36.2187 12.3906C36.2187 11.2596 35.8834 10.1539 35.255 9.21346C34.6266 8.27302 33.7334 7.54003 32.6885 7.10719C31.6435 6.67435 30.4937 6.5611 29.3843 6.78176C28.275 7.00242 27.256 7.54708 26.4562 8.34686C25.6565 9.14664 25.1118 10.1656 24.8911 11.275C24.6705 12.3843 24.7837 13.5341 25.2166 14.5791C25.6494 15.6241 26.3824 16.5172 27.3228 17.1456C28.2633 17.774 29.3689 18.1094 30.5 18.1094C32.0162 18.1077 33.4698 17.5046 34.5419 16.4325C35.614 15.3604 36.217 13.9068 36.2187 12.3906ZM26.6875 12.3906C26.6875 11.6366 26.9111 10.8995 27.33 10.2725C27.7489 9.64555 28.3444 9.1569 29.041 8.86834C29.7377 8.57978 30.5042 8.50428 31.2438 8.65138C31.9833 8.79849 32.6627 9.1616 33.1958 9.69478C33.729 10.228 34.0921 10.9073 34.2392 11.6468C34.3863 12.3864 34.3108 13.153 34.0223 13.8496C33.7337 14.5463 33.2451 15.1417 32.6181 15.5606C31.9912 15.9795 31.254 16.2031 30.5 16.2031C29.4892 16.202 28.5201 15.8 27.8054 15.0852C27.0907 14.3705 26.6886 13.4014 26.6875 12.3906Z" fill="#FE0000"/>
<path d="M29.9534 28.4215C30.1136 28.5336 30.3044 28.5938 30.5 28.5938C30.6956 28.5938 30.8864 28.5336 31.0466 28.4215C32.8568 27.088 34.513 25.5573 35.9849 23.8578C39.2555 20.0965 40.9844 16.1316 40.9844 12.3906C40.9844 9.61 39.8798 6.94325 37.9136 4.97705C35.9474 3.01085 33.2806 1.90625 30.5 1.90625C27.7194 1.90625 25.0526 3.01085 23.0864 4.97705C21.1202 6.94325 20.0156 9.61 20.0156 12.3906C20.0156 16.1316 21.7445 20.0965 25.0151 23.8578C26.487 25.5573 28.1432 27.088 29.9534 28.4215ZM30.5 3.8125C32.7743 3.81505 34.9547 4.71964 36.5628 6.3278C38.171 7.93595 39.0756 10.1163 39.0781 12.3906C39.0781 19.2104 32.4678 24.9035 30.5 26.4472C28.5292 24.9054 21.9219 19.2235 21.9219 12.3906C21.9244 10.1163 22.829 7.93595 24.4372 6.3278C26.0453 4.71964 28.2257 3.81505 30.5 3.8125Z" fill="#FE0000"/>
<path d="M17.8386 51.4191L18.399 49.5967L20.3057 50.183L19.7452 52.0054L17.8386 51.4191Z" fill="#FE0000"/>
<path d="M21.6506 52.588L22.211 50.7655L24.1177 51.3519L23.5572 53.1744L21.6506 52.588Z" fill="#FE0000"/>
<path d="M25.4637 53.764L26.0242 51.9417L27.9308 52.528L27.3704 54.3504L25.4637 53.764Z" fill="#FE0000"/>
<path d="M55.5616 23.8702L41.2647 19.4712L40.704 21.2932L52.0406 24.7812L30.5 31.409L8.95937 24.7812L20.2956 21.2932L19.7349 19.4712L5.43805 23.8702C5.24332 23.9302 5.07294 24.0511 4.95192 24.215C4.83089 24.379 4.7656 24.5774 4.76563 24.7812V50.5156C4.76563 50.7194 4.83097 50.9178 4.95206 51.0818C5.07315 51.2457 5.24361 51.3666 5.43841 51.4265L30.2197 59.0515C30.4023 59.1077 30.5977 59.1077 30.7803 59.0515L55.5616 51.4265C55.7564 51.3666 55.9269 51.2457 56.0479 51.0818C56.169 50.9178 56.2344 50.7194 56.2344 50.5156V24.7812C56.2344 24.5773 56.169 24.3789 56.0479 24.2149C55.9269 24.051 55.7564 23.9302 55.5616 23.8702ZM6.67188 26.0717L29.5469 33.1102V56.85L6.67188 49.8117V26.0717ZM31.4531 56.85V33.1102L54.3281 26.0717V49.8117L31.4531 56.85Z" fill="#FE0000"/>
<path d="M42.6165 49.6177L44.5232 49.0313L45.0836 50.8537L43.177 51.4401L42.6165 49.6177Z" fill="#FE0000"/>
<path d="M46.428 48.4481L48.3347 47.8618L48.8951 49.6843L46.9885 50.2706L46.428 48.4481Z" fill="#FE0000"/>
<path d="M50.2433 47.2715L52.1499 46.6851L52.7104 48.5075L50.8037 49.0939L50.2433 47.2715Z" fill="#FE0000"/>
<path d="M22.875 40.3978C23.1278 40.3978 23.3702 40.2974 23.549 40.1187C23.7277 39.9399 23.8281 39.6975 23.8281 39.4447V34.6791C23.8281 34.4753 23.7628 34.2768 23.6417 34.1129C23.5206 33.9489 23.3501 33.8281 23.1553 33.7681L13.6241 30.8354C13.4815 30.7915 13.3306 30.7817 13.1836 30.8068C13.0366 30.8318 12.8975 30.8911 12.7775 30.9797C12.6575 31.0683 12.56 31.1838 12.4928 31.317C12.4256 31.4502 12.3906 31.5973 12.3906 31.7464V36.5121C12.3906 36.7159 12.456 36.9143 12.5771 37.0783C12.6981 37.2422 12.8686 37.3631 13.0634 37.423L22.5947 40.3558C22.6855 40.3837 22.78 40.3978 22.875 40.3978ZM21.9219 38.1542L14.2969 35.8082V33.037L21.9219 35.383V38.1542Z" fill="#FE0000"/>
<path d="M48.6094 36.5121V31.7464C48.6094 31.5973 48.5744 31.4502 48.5072 31.317C48.44 31.1838 48.3425 31.0683 48.2225 30.9797C48.1025 30.8911 47.9634 30.8318 47.8164 30.8068C47.6694 30.7817 47.5185 30.7915 47.3759 30.8354L37.8447 33.7681C37.6499 33.8281 37.4794 33.9489 37.3583 34.1129C37.2372 34.2768 37.1719 34.4753 37.1719 34.6791V39.4447C37.1719 39.5939 37.2069 39.741 37.274 39.8741C37.3412 40.0073 37.4387 40.1229 37.5587 40.2115C37.6787 40.3001 37.8178 40.3593 37.9649 40.3844C38.1119 40.4095 38.2628 40.3997 38.4053 40.3558L47.9366 37.423C48.1314 37.3631 48.3019 37.2423 48.4229 37.0783C48.544 36.9143 48.6094 36.7159 48.6094 36.5121ZM46.7031 35.8082L39.0781 38.1542V35.383L46.7031 33.037V35.8082Z" fill="#FE0000"/>
</svg>
