<svg width="61" height="61" viewBox="0 0 61 61" fill="none" xmlns="http://www.w3.org/2000/svg">
<g clip-path="url(#clip0)">
<path d="M15.3737 0.1875C14.7157 0.1875 14.1821 0.712383 14.1821 1.35949C14.1821 2.00672 14.7157 2.53148 15.3737 2.53148C22.1043 2.53148 27.58 8.05723 27.58 14.8496C27.58 15.4969 28.1136 16.0216 28.7715 16.0216C29.4295 16.0216 29.963 15.4968 29.963 14.8496C29.9632 6.76488 23.4183 0.1875 15.3737 0.1875Z" fill="#D91D18"/>
<path d="M15.3697 5.7477C14.7117 5.7477 14.1782 6.27258 14.1782 6.91969C14.1782 7.56691 14.7117 8.09168 15.3697 8.09168C19.0554 8.09168 22.0538 11.1232 22.0538 14.8494C22.0538 15.4966 22.5874 16.0214 23.2453 16.0214C23.9033 16.0214 24.4368 15.4965 24.4368 14.8494C24.4369 9.83074 20.3694 5.7477 15.3697 5.7477Z" fill="#D91D18"/>
<path d="M15.3928 10.8697C14.7347 10.8697 14.2013 11.3944 14.2013 12.0417C14.2013 12.6889 14.735 13.2137 15.3928 13.2137C16.2539 13.2137 16.9542 13.9314 16.9542 14.8135C16.9542 15.4608 17.4877 15.9855 18.1457 15.9855C18.8037 15.9855 19.3372 15.4607 19.3372 14.8135C19.3374 12.6389 17.5678 10.8697 15.3928 10.8697Z" fill="#D91D18"/>
<path d="M54.6247 9.47636H51.9834C51.3254 9.47636 50.7919 10.0011 50.7919 10.6484C50.7919 11.2956 51.3254 11.8203 51.9834 11.8203H54.6247C56.8257 11.8203 58.6164 13.5817 58.6164 15.7466V31.6559C58.6164 32.9024 58.022 34.0141 57.0983 34.7339V31.669C57.0983 29.2779 55.3637 27.2242 52.974 26.7858L52.2037 26.6446C52.3755 26.1266 52.4695 25.5746 52.4695 25.001V22.3078C52.4695 19.3794 50.0474 16.997 47.0702 16.997C44.093 16.997 41.671 19.3794 41.671 22.3078V25.001C41.671 25.5746 41.7651 26.1266 41.9368 26.6446L41.1665 26.7858C38.7767 27.2241 37.0422 29.2778 37.0422 31.669V35.0666C35.838 34.3898 35.0239 33.115 35.0239 31.6559V15.7466C35.0239 13.5817 36.8146 11.8203 39.0156 11.8203H41.8554C42.5134 11.8203 43.0469 11.2956 43.0469 10.6484C43.0469 10.0011 42.5133 9.47636 41.8554 9.47636H39.0156C35.5006 9.47636 32.6408 12.2892 32.6408 15.7466V31.6559C32.6408 35.1132 35.5006 37.9261 39.0156 37.9261H45.0114V41.2958C45.0114 41.7691 45.301 42.1962 45.7452 42.3778C45.8932 42.4384 46.0486 42.4678 46.2027 42.4678C46.5115 42.4678 46.8152 42.3497 47.0429 42.1273L51.341 37.9261H54.6247C58.1397 37.9261 60.9994 35.1132 60.9994 31.6559V15.7466C60.9994 12.2892 58.1397 9.47636 54.6247 9.47636ZM44.0539 22.3078C44.0539 20.6719 45.4069 19.341 47.0701 19.341C48.7333 19.341 50.0864 20.6719 50.0864 22.3078V25.001C50.0864 26.6369 48.7333 27.9678 47.0701 27.9678C45.4069 27.9678 44.0539 26.6369 44.0539 25.001V22.3078ZM54.7149 35.5796C54.6847 35.5803 54.6548 35.5819 54.6244 35.5819H50.8497V35.5821C50.5349 35.5821 50.233 35.7046 50.0098 35.9226L47.3945 38.479V36.754C47.3945 36.1067 46.8609 35.582 46.203 35.582H39.4254V31.6689C39.4254 30.4062 40.3415 29.3215 41.6034 29.0899L43.2832 28.7818C44.2585 29.7272 45.596 30.3117 47.0702 30.3117C48.5443 30.3117 49.882 29.7269 50.8573 28.7817L52.5372 29.0898C53.7993 29.3214 54.7152 30.4059 54.7152 31.6689V35.5796H54.7149Z" fill="#D91D18"/>
<path d="M47.1858 9.8202C46.9643 9.60106 46.6568 9.47684 46.3434 9.47684C46.0301 9.47684 45.7226 9.60106 45.501 9.8202C45.2794 10.0371 45.1519 10.3396 45.1519 10.6488C45.1519 10.957 45.2793 11.2595 45.501 11.4775C45.7226 11.6953 46.03 11.8208 46.3434 11.8208C46.6568 11.8208 46.9643 11.6954 47.1858 11.4775C47.4074 11.2583 47.535 10.9571 47.535 10.6488C47.535 10.3395 47.4075 10.0382 47.1858 9.8202Z" fill="#D91D18"/>
<path d="M22.1456 39.6137C21.924 39.3957 21.6178 39.2704 21.3032 39.2704C20.9898 39.2704 20.6823 39.3957 20.4609 39.6137C20.2393 39.8317 20.1117 40.134 20.1117 40.4423C20.1117 40.7517 20.2391 41.053 20.4609 41.271C20.6835 41.4901 20.9898 41.6154 21.3032 41.6154C21.6165 41.6154 21.924 41.4901 22.1456 41.271C22.3684 41.053 22.4947 40.7516 22.4947 40.4423C22.4947 40.1341 22.3684 39.8318 22.1456 39.6137Z" fill="#D91D18"/>
<path d="M48.2262 50.2113L39.0977 41.2323C37.8824 40.037 35.9707 39.8621 34.5525 40.8162L28.7262 44.7347C28.2534 45.0526 27.6164 44.9944 27.2113 44.5958L25.2846 42.7007C24.8195 42.2433 24.0652 42.2432 23.5994 42.7007C23.1341 43.1583 23.1341 43.9003 23.5994 44.3583L25.526 46.2534C26.7412 47.4486 28.6527 47.6238 30.0712 46.6696L35.8974 42.7512C36.3701 42.4332 37.0072 42.4914 37.4124 42.8899L46.5411 51.8689C47.0056 52.3257 47.0055 53.0694 46.541 53.5266C40.6874 59.2842 31.1627 59.2842 25.309 53.5266L6.77291 35.2941C3.93712 32.5049 2.37567 28.7966 2.37567 24.8521C2.37567 20.9075 3.93724 17.1991 6.77303 14.4098C6.99809 14.1885 7.29725 14.0667 7.61547 14.0667C7.93382 14.0667 8.2331 14.1886 8.45804 14.41L17.5866 23.389C17.9916 23.7873 18.0509 24.4141 17.7278 24.8791L13.7442 30.6098C12.774 32.005 12.952 33.8851 14.1671 35.0805L17.0632 37.9291C17.5286 38.3866 18.2829 38.3866 18.7485 37.9291C19.2137 37.4715 19.2137 36.7294 18.7485 36.2715L15.8524 33.4229C15.4474 33.0246 15.3881 32.3979 15.7113 31.9329L19.695 26.2022C20.6649 24.807 20.487 22.9267 19.2718 21.7315L10.1433 12.7525C8.74957 11.3816 6.48173 11.3816 5.08778 12.7525C-1.69501 19.4242 -1.69501 30.2798 5.08778 36.9516L23.6239 55.1837C27.0154 58.5196 31.4702 60.1875 35.925 60.1875C40.3799 60.1874 44.8347 58.5194 48.2261 55.1837C49.6198 53.8128 49.6198 51.5823 48.2262 50.2113Z" fill="#D91D18"/>
<path d="M16.0515 29.0061L8.82844 21.9015C8.36296 21.444 7.60868 21.444 7.14319 21.9015C6.67795 22.3593 6.67795 23.1014 7.14319 23.5591L14.3663 30.6637C14.599 30.8925 14.9038 31.007 15.2089 31.007C15.5138 31.007 15.8188 30.8925 16.0515 30.6637C16.5167 30.206 16.5167 29.4639 16.0515 29.0061Z" fill="#D91D18"/>
<path d="M43.6961 56.1975L36.0963 48.7222C35.6308 48.2647 34.8765 48.2647 34.411 48.7222C33.9458 49.18 33.9458 49.9221 34.411 50.3798L42.0109 57.8551C42.2436 58.0839 42.5483 58.1984 42.8534 58.1984C43.1583 58.1984 43.4633 58.0839 43.6961 57.8551C44.1614 57.3973 44.1614 56.6552 43.6961 56.1975Z" fill="#D91D18"/>
</g>
<defs>
<clipPath id="clip0">
<rect width="61" height="60" fill="white" transform="translate(0 0.1875)"/>
</clipPath>
</defs>
</svg>
