<svg width="60" height="60" viewBox="0 0 60 60" fill="none" xmlns="http://www.w3.org/2000/svg">
<path d="M47.6953 32.0464V15.8847C47.6949 15.74 47.6564 15.5978 47.5835 15.4727C47.5107 15.3475 47.4062 15.2438 47.2805 15.1719L24.7852 2.18412C24.6605 2.11212 24.519 2.07422 24.375 2.07422C24.231 2.07422 24.0895 2.11212 23.9648 2.18412L1.47984 15.1658C1.35109 15.2366 1.2437 15.3406 1.16891 15.4671C1.09412 15.5936 1.05467 15.7378 1.05469 15.8847V44.1152C1.05469 44.2592 1.0926 44.4007 1.16459 44.5254C1.23659 44.6501 1.34014 44.7536 1.46484 44.8256L23.9648 57.8158C24.0895 57.8878 24.231 57.9258 24.375 57.9258C24.519 57.9258 24.6605 57.8878 24.7852 57.8158L36.8698 50.8397C38.0153 52.5376 39.5742 53.9162 41.3995 54.8454C43.2248 55.7747 45.2566 56.2242 47.3036 56.1516C49.3506 56.079 51.3455 55.4867 53.1004 54.4304C54.8553 53.3741 56.3125 51.8886 57.3349 50.1137C58.3573 48.3388 58.9112 46.333 58.9445 44.285C58.9777 42.237 58.4893 40.2142 57.5251 38.407C56.5609 36.5999 55.1527 35.0678 53.4331 33.9551C51.7134 32.8423 49.7389 32.1855 47.6953 32.0464ZM37.3976 11.3604L16.54 23.4023L12.4465 21.0387L33.3036 8.9967L37.3976 11.3604ZM15.7031 24.7997V39.8359L14.1568 38.0924C14.0403 37.9637 13.887 37.8739 13.7177 37.8353C13.5484 37.7966 13.3713 37.8109 13.2104 37.8762L11.6016 38.5331V22.4587L15.7031 24.7997ZM24.375 3.84174L31.663 8.04947L10.8054 20.0917L3.51797 15.8837L24.375 3.84174ZM23.5547 55.6847L2.69531 43.6417V17.3032L9.96094 21.5122V39.7594C9.96359 39.895 9.99921 40.0279 10.0647 40.1467C10.1302 40.2655 10.2236 40.3666 10.3369 40.4412C10.4502 40.5159 10.5799 40.5618 10.715 40.5751C10.85 40.5884 10.9862 40.5687 11.1118 40.5176L13.2979 39.6163L15.8828 42.5514C15.9599 42.6389 16.0548 42.709 16.1611 42.7569C16.2674 42.8049 16.3828 42.8297 16.4994 42.8297C16.6023 42.8297 16.7043 42.8118 16.8011 42.7768C16.9583 42.7185 17.0943 42.614 17.1912 42.4771C17.288 42.3401 17.3412 42.1771 17.3438 42.0094V25.7469L23.5547 29.3462V55.6847ZM24.375 27.9258L18.1806 24.3494L39.0382 12.3076L45.232 15.8836L24.375 27.9258ZM25.1953 55.685V29.3462L46.0547 17.3031V32.0464C44.0776 32.1814 42.1641 32.801 40.4832 33.8505C38.8023 34.9 37.4055 36.3472 36.4163 38.0644C35.4271 39.7815 34.8758 41.7157 34.8111 43.6964C34.7464 45.677 35.1703 47.6431 36.0454 49.4211L25.1953 55.685ZM46.875 54.5183C44.8122 54.5183 42.7957 53.9066 41.0806 52.7606C39.3654 51.6146 38.0286 49.9857 37.2392 48.0799C36.4498 46.1741 36.2433 44.077 36.6457 42.0539C37.0481 40.0307 38.0415 38.1723 39.5001 36.7137C40.9587 35.2551 42.8171 34.2618 44.8403 33.8593C46.8634 33.4569 48.9605 33.6634 50.8663 34.4528C52.772 35.2422 54.4009 36.579 55.547 38.2942C56.693 40.0093 57.3047 42.0258 57.3047 44.0886C57.2947 46.8516 56.1927 49.4986 54.2389 51.4524C52.2851 53.4061 49.638 54.5081 46.875 54.518V54.5183Z" fill="#D91D18"/>
<path d="M31.2732 29.3711C31.1839 29.2766 31.0735 29.2047 30.9509 29.1612C30.8284 29.1177 30.6973 29.1039 30.5684 29.121C30.4395 29.138 30.3165 29.1855 30.2095 29.2593C30.1025 29.3332 30.0146 29.4313 29.9529 29.5458L27.9724 33.2302C27.9052 33.3551 27.8716 33.4953 27.8747 33.6371C27.8779 33.7789 27.9178 33.9174 27.9905 34.0392C28.0632 34.161 28.1662 34.2619 28.2895 34.332C28.4129 34.402 28.5522 34.439 28.6941 34.4391C28.8443 34.4394 28.992 34.3995 29.1216 34.3236C29.2513 34.2476 29.3582 34.1383 29.4314 34.007L29.8828 33.1929V40.2444C29.8828 40.462 29.9692 40.6707 30.1231 40.8245C30.2769 40.9783 30.4856 41.0648 30.7031 41.0648C30.9207 41.0648 31.1293 40.9783 31.2832 40.8245C31.437 40.6707 31.5234 40.462 31.5234 40.2444V31.9981L32.1902 32.7194C32.2639 32.798 32.3525 32.8613 32.4508 32.9056C32.5491 32.9499 32.6552 32.9742 32.7629 32.9773C32.8707 32.9804 32.978 32.9621 33.0786 32.9235C33.1793 32.8848 33.2713 32.8267 33.3494 32.7523C33.4274 32.678 33.49 32.5889 33.5334 32.4902C33.5769 32.3916 33.6004 32.2853 33.6025 32.1775C33.6047 32.0697 33.5855 31.9626 33.5461 31.8622C33.5066 31.7619 33.4477 31.6704 33.3727 31.593L31.2732 29.3711Z" fill="#D91D18"/>
<path d="M4.80469 39.6621C4.58713 39.6621 4.37848 39.7485 4.22464 39.9024C4.0708 40.0562 3.98438 40.2649 3.98438 40.4824V43.5199C3.98438 43.7375 4.0708 43.9461 4.22464 44.1C4.37848 44.2538 4.58713 44.3402 4.80469 44.3402C5.02225 44.3402 5.2309 44.2538 5.38474 44.1C5.53857 43.9461 5.625 43.7375 5.625 43.5199V40.4824C5.625 40.2649 5.53857 40.0562 5.38474 39.9024C5.2309 39.7485 5.02225 39.6621 4.80469 39.6621Z" fill="#D91D18"/>
<path d="M8.08594 41.9121C7.86838 41.9121 7.65973 41.9985 7.50589 42.1524C7.35205 42.3062 7.26562 42.5149 7.26562 42.7324V45.4688C7.26562 45.6863 7.35205 45.895 7.50589 46.0488C7.65973 46.2026 7.86838 46.2891 8.08594 46.2891C8.3035 46.2891 8.51215 46.2026 8.66599 46.0488C8.81982 45.895 8.90625 45.6863 8.90625 45.4688V42.7324C8.90625 42.5149 8.81982 42.3062 8.66599 42.1524C8.51215 41.9985 8.3035 41.9121 8.08594 41.9121Z" fill="#D91D18"/>
<path d="M11.4844 44.1621C11.2668 44.1621 11.0582 44.2485 10.9043 44.4024C10.7505 44.5562 10.6641 44.7649 10.6641 44.9824V47.3918C10.6641 47.6094 10.7505 47.818 10.9043 47.9718C11.0582 48.1257 11.2668 48.2121 11.4844 48.2121C11.7019 48.2121 11.9106 48.1257 12.0644 47.9718C12.2183 47.818 12.3047 47.6094 12.3047 47.3918V44.9824C12.3047 44.7649 12.2183 44.5562 12.0644 44.4024C11.9106 44.2485 11.7019 44.1621 11.4844 44.1621Z" fill="#D91D18"/>
<path d="M14.7656 46.4121C14.5481 46.4121 14.3394 46.4985 14.1856 46.6524C14.0317 46.8062 13.9453 47.0149 13.9453 47.2324V49.3148C13.9453 49.5324 14.0317 49.7411 14.1856 49.8949C14.3394 50.0487 14.5481 50.1352 14.7656 50.1352C14.9832 50.1352 15.1918 50.0487 15.3457 49.8949C15.4995 49.7411 15.5859 49.5324 15.5859 49.3148V47.2324C15.5859 47.0149 15.4995 46.8062 15.3457 46.6524C15.1918 46.4985 14.9832 46.4121 14.7656 46.4121Z" fill="#D91D18"/>
<path d="M17.3438 51.2824C17.3438 51.5 17.4302 51.7086 17.584 51.8625C17.7379 52.0163 17.9465 52.1027 18.1641 52.1027C18.3816 52.1027 18.5903 52.0163 18.7441 51.8625C18.898 51.7086 18.9844 51.5 18.9844 51.2824V49.4824C18.9844 49.2649 18.898 49.0562 18.7441 48.9024C18.5903 48.7485 18.3816 48.6621 18.1641 48.6621C17.9465 48.6621 17.7379 48.7485 17.584 48.9024C17.4302 49.0562 17.3438 49.2649 17.3438 49.4824V51.2824Z" fill="#D91D18"/>
<path d="M32.3625 41.4219L28.6254 43.5793C28.437 43.6881 28.2995 43.8673 28.2432 44.0774C28.1869 44.2876 28.2163 44.5115 28.3251 44.6999C28.4339 44.8884 28.6131 45.0259 28.8232 45.0822C29.0334 45.1385 29.2573 45.109 29.4457 45.0002L33.1828 42.8428C33.3713 42.734 33.5087 42.5549 33.5651 42.3447C33.6214 42.1345 33.5919 41.9106 33.4831 41.7222C33.3743 41.5338 33.1952 41.3963 32.985 41.34C32.7749 41.2837 32.5509 41.3131 32.3625 41.4219Z" fill="#D91D18"/>
<path d="M51.6307 40.268L44.4237 46.1315L42.2251 43.5558C42.1555 43.473 42.0701 43.4048 41.9739 43.3551C41.8778 43.3054 41.7728 43.2753 41.6649 43.2663C41.5571 43.2574 41.4485 43.2699 41.3455 43.3032C41.2425 43.3364 41.1471 43.3897 41.0648 43.4599C40.9825 43.5302 40.9149 43.6161 40.8659 43.7126C40.8169 43.8091 40.7875 43.9143 40.7794 44.0222C40.7713 44.1301 40.7846 44.2386 40.8185 44.3413C40.8525 44.4441 40.9065 44.5391 40.9773 44.6209L43.6961 47.806C43.8351 47.9689 44.0324 48.071 44.2457 48.0904C44.4591 48.1098 44.6715 48.045 44.8377 47.9098L52.6658 41.5405C52.7501 41.4728 52.8202 41.389 52.872 41.2941C52.9238 41.1992 52.9563 41.095 52.9677 40.9874C52.9791 40.8799 52.9691 40.7711 52.9383 40.6675C52.9075 40.5638 52.8565 40.4673 52.7882 40.3834C52.72 40.2995 52.6358 40.2299 52.5406 40.1787C52.4453 40.1275 52.3409 40.0956 52.2333 40.0849C52.1257 40.0741 52.017 40.0848 51.9135 40.1162C51.8101 40.1477 51.7138 40.1992 51.6304 40.268H51.6307Z" fill="#D91D18"/>
</svg>
