<?xml version="1.0" encoding="iso-8859-1"?>
<!-- Generator: Adobe Illustrator 19.0.0, SVG Export Plug-In . SVG Version: 6.00 Build 0)  -->
<svg version="1.1" id="Capa_1" xmlns="http://www.w3.org/2000/svg" xmlns:xlink="http://www.w3.org/1999/xlink" x="0px" y="0px"
	 viewBox="0 0 512 512" style="enable-background:new 0 0 512 512;" xml:space="preserve">
<g>
	<g>
		<path d="M482,182.58V135c0-24.813-20.187-45-45-45h-15V75c0-41.355-33.645-75-75-75H105c-8.284,0-15,6.716-15,15v75H75
			c-24.813,0-45,20.187-45,45v47.58C12.541,188.772,0,205.445,0,225v152c0,24.813,20.187,45,45,45h45v75c0,8.284,6.716,15,15,15h302
			c8.284,0,15-6.716,15-15v-75h45c24.813,0,45-20.187,45-45V225C512,205.445,499.459,188.772,482,182.58z M422,120h15
			c8.271,0,15,6.729,15,15v45h-30V120z M362,32.58c12.764,4.527,22.893,14.656,27.42,27.42H362V32.58z M120,30h212v45
			c0,8.284,6.716,15,15,15h45v90H120V30z M60,135c0-8.271,6.729-15,15-15h15v60H60V135z M392,482H120V362h272V482z M482,377
			c0,8.271-6.729,15-15,15h-45v-45c0-8.284-6.716-15-15-15H105c-8.284,0-15,6.716-15,15v45H45c-8.271,0-15-6.729-15-15V225
			c0-8.271,6.729-15,15-15c22.168,0,404.583,0,422,0c8.271,0,15,6.729,15,15V377z"/>
	</g>
</g>
<g>
	<g>
		<circle cx="437" cy="255" r="15"/>
	</g>
</g>
<g>
	<g>
		<path d="M195,240h-30c-8.284,0-15,6.716-15,15s6.716,15,15,15h30c8.284,0,15-6.716,15-15S203.284,240,195,240z"/>
	</g>
</g>
<g>
	<g>
		<path d="M105,240H75c-8.284,0-15,6.716-15,15s6.716,15,15,15h30c8.284,0,15-6.716,15-15S113.284,240,105,240z"/>
	</g>
</g>
<g>
</g>
<g>
</g>
<g>
</g>
<g>
</g>
<g>
</g>
<g>
</g>
<g>
</g>
<g>
</g>
<g>
</g>
<g>
</g>
<g>
</g>
<g>
</g>
<g>
</g>
<g>
</g>
<g>
</g>
</svg>
