<svg width="60" height="60" viewBox="0 0 60 60" fill="none" xmlns="http://www.w3.org/2000/svg">
<g clip-path="url(#clip0)">
<path d="M50.772 39.566V35.572C50.772 34.9247 50.247 34.4001 49.6002 34.4001C48.9529 34.4001 48.4278 34.9247 48.4278 35.572V38.8725L28.034 50.0707V27.774L48.4278 16.5757V26.6643C48.4278 27.3116 48.9529 27.8362 49.6002 27.8362C50.247 27.8362 50.772 27.3116 50.772 26.6643V14.5949C50.772 14.1674 50.539 13.7737 50.1641 13.5677L27.4261 1.08216C27.0749 0.889442 26.6492 0.889442 26.2977 1.08216L3.56004 13.5677C3.18514 13.7737 2.95213 14.1674 2.95213 14.5949V23.4604C2.95213 24.1077 3.47673 24.6323 4.12401 24.6323C4.77129 24.6323 5.29635 24.1077 5.29635 23.4604V16.5757L11.5132 19.9897V27.2022C11.5132 27.6275 11.7435 28.0193 12.1147 28.2262L17.7306 31.356C17.9082 31.4548 18.1046 31.5043 18.301 31.5043C18.5065 31.5043 18.7116 31.4503 18.8947 31.3427C19.2531 31.1321 19.4733 30.7476 19.4733 30.3324V24.3604L25.6898 27.774V50.0707L5.29635 38.8725V32.6807C5.29635 32.0334 4.77129 31.5089 4.12401 31.5089C3.47673 31.5089 2.95213 32.0334 2.95213 32.6807V39.566C2.95213 39.9935 3.18514 40.3872 3.56004 40.5932L26.2977 53.0787C26.4734 53.1753 26.668 53.2234 26.8621 53.2234C27.0562 53.2234 27.2503 53.1753 27.4261 53.0787L50.1641 40.5932C50.539 40.3872 50.772 39.9935 50.772 39.566ZM35.7642 8.33498L38.5941 9.93166L18.3399 21.064L16.0479 19.8052L15.0939 19.2669L35.3742 8.12029L35.7642 8.33498ZM41.0679 11.2468L47.1649 14.5949L26.8621 25.7433L20.7747 22.4007L41.0679 11.2468ZM26.8621 3.44651L32.9394 6.78362L12.6462 17.9375L6.55932 14.5949L26.8621 3.44651ZM13.8575 26.5137V21.2764L14.9071 21.8532L17.1291 23.107V28.337L13.8575 26.5137Z" fill="#D91D18"/>
<path d="M49.6006 29.8292C49.2921 29.8292 48.99 29.9533 48.7707 30.1725C48.5528 30.3904 48.4283 30.6917 48.4283 31.0011C48.4283 31.3096 48.5528 31.6118 48.7707 31.8297C48.99 32.048 49.2912 32.1734 49.6006 32.1734C49.9087 32.1734 50.2099 32.048 50.4292 31.8297C50.6471 31.6118 50.7725 31.3096 50.7725 31.0011C50.7725 30.693 50.6471 30.3904 50.4292 30.1725C50.2099 29.9533 49.9087 29.8292 49.6006 29.8292Z" fill="#D91D18"/>
<path d="M4.95346 28.8409C5.17136 28.623 5.29679 28.3209 5.29679 28.0123C5.29679 27.7043 5.17136 27.4017 4.95346 27.1838C4.73419 26.9659 4.43299 26.8405 4.12491 26.8405C3.81546 26.8405 3.51425 26.9659 3.29498 27.1838C3.07709 27.4017 2.95258 27.7043 2.95258 28.0123C2.95258 28.3209 3.07709 28.623 3.29498 28.8409C3.51425 29.0593 3.81546 29.1847 4.12491 29.1847C4.43299 29.1847 4.73419 29.0593 4.95346 28.8409Z" fill="#D91D18"/>
<path d="M58.2533 36.4976V18.4663C58.4313 18.5665 58.6291 18.6178 58.8278 18.6178C59.1281 18.6178 59.4279 18.5034 59.6568 18.2745C60.1145 17.8167 60.1145 17.0747 59.6568 16.6169L57.9099 14.8701C57.4522 14.4128 56.7101 14.4128 56.2524 14.8701L54.5056 16.6169C54.0478 17.0747 54.0478 17.8167 54.5056 18.2745C54.886 18.6549 55.4623 18.718 55.9091 18.4663V36.4976C55.4623 36.2454 54.886 36.3086 54.5056 36.689C54.0478 37.1467 54.0478 37.8892 54.5056 38.3465L56.2524 40.0934C56.4813 40.3222 56.7811 40.4367 57.0809 40.4367C57.3812 40.4367 57.6811 40.3222 57.9099 40.0934L59.6568 38.3465C60.1141 37.8892 60.1141 37.1467 59.6568 36.689C59.2764 36.309 58.7 36.2459 58.2533 36.4976Z" fill="#D91D18"/>
<path d="M52.946 44.0814L50.6004 43.3073C49.9856 43.1041 49.3227 43.4382 49.12 44.053C48.9387 44.6014 49.1859 45.1874 49.678 45.4515L32.5709 54.8448C32.5677 54.344 32.2417 53.8826 31.7373 53.7306C31.1175 53.5434 30.4633 53.8945 30.2765 54.5138L29.5629 56.8791C29.3761 57.4989 29.7268 58.1526 30.3466 58.3394L32.7114 59.053C32.8245 59.0874 32.9384 59.1034 33.0506 59.1034C33.5541 59.1034 34.0192 58.7765 34.1721 58.2698C34.3305 57.7443 34.1016 57.195 33.6507 56.9263L50.6347 47.6002C50.659 48.069 50.9643 48.497 51.4372 48.6531C51.5589 48.6934 51.683 48.7126 51.8047 48.7126C52.2968 48.7126 52.7551 48.4004 52.9176 47.9074L53.6917 45.5618C53.7892 45.2665 53.7654 44.9447 53.6257 44.6673C53.4857 44.3895 53.2412 44.1789 52.946 44.0814Z" fill="#D91D18"/>
<path d="M23.4737 54.5138C23.2865 53.894 22.6323 53.5433 22.013 53.7301C21.5085 53.8825 21.1826 54.344 21.1794 54.8448L4.07274 45.4514C4.56438 45.1873 4.81158 44.6014 4.6303 44.053C4.42751 43.4382 3.76421 43.1045 3.15035 43.3073L0.804306 44.0813C0.797897 44.0836 0.793777 44.0864 0.788742 44.0891C0.523696 44.1807 0.290236 44.3661 0.144209 44.6311C-0.0178393 44.9264 -0.0384387 45.2601 0.0576919 45.5567C0.0581497 45.5586 0.0581497 45.5599 0.0586074 45.5618L0.832687 47.9073C0.995651 48.4004 1.45342 48.7125 1.94551 48.7125C2.06728 48.7125 2.19133 48.6933 2.3131 48.653C2.78597 48.4969 3.0913 48.0689 3.11556 47.6002L20.0995 56.9262C19.6486 57.1954 19.4198 57.7442 19.5781 58.2698C19.731 58.7765 20.1966 59.1033 20.6997 59.1033C20.8118 59.1033 20.9258 59.0873 21.0389 59.053L23.3694 58.3499C23.3707 58.3494 23.3721 58.3489 23.3735 58.3485L23.4037 58.3393C23.4064 58.3389 23.4083 58.337 23.4105 58.3361C23.6916 58.2496 23.9406 58.0596 24.0935 57.7818C24.2528 57.492 24.2757 57.1643 24.1851 56.8713L23.4737 54.5138Z" fill="#D91D18"/>
</g>
<defs>
<clipPath id="clip0">
<rect width="60" height="60" fill="white"/>
</clipPath>
</defs>
</svg>
