<?xml version="1.0"?>
<svg xmlns="http://www.w3.org/2000/svg" viewBox="0 0 512 512" width="512" height="512">
<g id="Outline">
<path fill="#D91D18" d="M464,334.111V296a8,8,0,0,0-8-8H408V240H392v48H120V88H104V288H56a8,8,0,0,0-8,8v38.111L16.845,396.422A7.994,7.994,0,0,0,16,400v56a8,8,0,0,0,8,8v16a16.019,16.019,0,0,0,16,16H88a16.019,16.019,0,0,0,16-16V464H408v16a16.019,16.019,0,0,0,16,16h48a16.019,16.019,0,0,0,16-16V464a8,8,0,0,0,8-8V432H480v16H32V401.889L60.944,344H451.056L480,401.889V416h16V400a7.994,7.994,0,0,0-.845-3.578ZM424,464h48v16H424ZM40,464H88v16H40ZM448,328H64V304H448ZM160,376v40H352V376H192V360H360a8,8,0,0,1,8,8v56a8,8,0,0,1-8,8H152a8,8,0,0,1-8-8V368a8,8,0,0,1,8-8h24v16ZM80,400a24,24,0,1,0,24-24A24.028,24.028,0,0,0,80,400Zm32,0a8,8,0,1,1-8-8A8.009,8.009,0,0,1,112,400Zm288-8H384V376h16Zm32,0H416V376h16Zm-48,16h16v16H384Zm32,0h16v16H416Zm-8-184V24a8,8,0,0,0-8-8H112a8,8,0,0,0-8,8V72h16V32h96v72a8,8,0,0,0,11.578,7.155L240,104.944l12.422,6.211a8,8,0,0,0,7.156,0L272,104.944l12.422,6.211A8,8,0,0,0,296,104V32h96V224ZM280,91.056l-4.422-2.211a8,8,0,0,0-7.156,0L256,95.056l-12.422-6.211a8,8,0,0,0-7.156,0L232,91.056V32h48ZM360,272V256h16v16Zm-32,0V256h16v16Zm-32-16h16v16H296ZM152,64H136V48h16ZM136,80h16v64H136Z"/>
</g>
</svg>
