<svg width="247" height="67" viewBox="0 0 247 67" fill="none" xmlns="http://www.w3.org/2000/svg">
<path d="M74.9073 46.5428C76.3101 47.3213 79.1148 48.0623 81.9568 48.0623C88.7843 48.0623 91.9953 44.5047 91.9953 40.3174C91.9953 36.7967 89.9286 34.4991 85.5368 32.8685C82.3258 31.6456 80.9235 30.9415 80.9235 29.348C80.9235 28.051 82.1043 26.9392 84.5403 26.9392C86.9761 26.9392 88.7475 27.6433 89.7439 28.1251L90.9988 23.5669C89.5227 22.8999 87.4557 22.307 84.6509 22.307C78.7827 22.307 75.2395 25.5681 75.2395 29.8297C75.2395 33.4614 77.9337 35.7591 82.0674 37.2043C85.0568 38.2788 86.238 39.1684 86.238 40.7249C86.238 42.3555 84.8725 43.4301 82.289 43.4301C79.8897 43.4301 77.5646 42.652 76.0517 41.8735L74.9073 46.5428ZM95.6137 47.6918H101.076V37.1302C101.076 36.6855 101.113 36.1667 101.297 35.722C101.629 34.7955 102.478 33.6838 103.918 33.6838C105.689 33.6838 106.501 35.2402 106.501 37.5378V47.6918H111.964V37.0932C111.964 36.6485 112.037 36.0555 112.185 35.6479C112.554 34.5732 113.477 33.6838 114.768 33.6838C116.577 33.6838 117.426 35.2032 117.426 37.8343V47.6918H122.888V37.0192C122.888 31.6085 120.268 29.1627 116.798 29.1627C115.47 29.1627 114.362 29.4592 113.366 30.0521C112.517 30.5709 111.705 31.3121 111.041 32.2385H110.967C110.192 30.3486 108.347 29.1627 106.022 29.1627C102.921 29.1627 101.334 30.8674 100.559 32.0162H100.449L100.19 29.5704H95.4662C95.54 31.1639 95.6137 33.0909 95.6137 35.3514V47.6918ZM142.683 47.6918C142.499 46.6912 142.425 45.0236 142.425 43.282V36.982C142.425 32.7203 140.505 29.1627 134.49 29.1627C131.205 29.1627 128.732 30.0521 127.477 30.7562L128.511 34.3879C129.692 33.6467 131.648 33.0168 133.493 33.0168C136.261 33.0168 136.778 34.3879 136.778 35.3514V35.6108C130.393 35.5738 126.186 37.8343 126.186 42.5406C126.186 45.4312 128.363 48.0993 132.017 48.0993C134.157 48.0993 136.003 47.3213 137.184 45.8758H137.295L137.627 47.6918H142.683ZM136.963 41.0954C136.963 41.429 136.926 41.7625 136.852 42.059C136.483 43.2076 135.339 44.1341 133.936 44.1341C132.681 44.1341 131.722 43.4301 131.722 41.9849C131.722 39.7984 134.01 39.0943 136.963 39.1313V41.0954ZM146.865 47.6918H152.475V38.5013C152.475 38.0567 152.512 37.6118 152.586 37.2413C152.955 35.4996 154.358 34.3879 156.424 34.3879C157.052 34.3879 157.531 34.462 157.937 34.5361V29.2368C157.531 29.1627 157.273 29.1627 156.757 29.1627C155.022 29.1627 152.807 30.2745 151.885 32.9056H151.737L151.553 29.5704H146.718C146.792 31.1268 146.865 32.8685 146.865 35.5367V47.6918ZM162.454 25.6422V29.5704H160.055V33.7208H162.454V41.1325C162.454 43.6896 162.97 45.4312 164.004 46.5058C164.889 47.4323 166.403 48.0623 168.211 48.0623C169.798 48.0623 171.127 47.8769 171.865 47.5807L171.828 43.319C171.422 43.3931 170.868 43.4671 170.167 43.4671C168.469 43.4671 167.953 42.4665 167.953 40.28V33.7208H171.976V29.5704H167.953V24.3822L162.454 25.6422ZM174.455 46.5428C175.858 47.3213 178.663 48.0623 181.504 48.0623C188.332 48.0623 191.543 44.5047 191.543 40.3174C191.543 36.7967 189.477 34.4991 185.084 32.8685C181.874 31.6456 180.471 30.9415 180.471 29.348C180.471 28.051 181.652 26.9392 184.088 26.9392C186.524 26.9392 188.295 27.6433 189.292 28.1251L190.547 23.5669C189.07 22.8999 187.004 22.307 184.199 22.307C178.331 22.307 174.788 25.5681 174.788 29.8297C174.788 33.4614 177.482 35.7591 181.615 37.2043C184.605 38.2788 185.786 39.1684 185.786 40.7249C185.786 42.3555 184.42 43.4301 181.837 43.4301C179.438 43.4301 177.113 42.652 175.6 41.8735L174.455 46.5428ZM195.018 47.6918H200.627V36.9449C200.627 36.5373 200.664 36.0555 200.812 35.6849C201.218 34.6844 202.14 33.7208 203.617 33.7208C205.72 33.7208 206.533 35.3514 206.533 37.7232V47.6918H212.142V37.0932C212.142 31.6456 209.411 29.1627 205.831 29.1627C204.798 29.1627 203.727 29.4221 202.916 29.8668C202.03 30.3486 201.292 30.9415 200.701 31.7197H200.627V21.3805H195.018V47.6918ZM222.252 47.6918V29.5704H216.643V47.6918H222.252ZM219.448 21.677C217.639 21.677 216.458 22.8999 216.495 24.5304C216.458 26.0869 217.639 27.3469 219.411 27.3469C221.256 27.3469 222.437 26.0869 222.437 24.5304C222.4 22.8999 221.256 21.677 219.448 21.677ZM226.77 55.0292H232.38V46.0242H232.454C233.266 47.2098 234.964 48.0993 237.141 48.0993C241.164 48.0993 245.335 44.9866 245.335 38.3903C245.335 32.6091 241.792 29.1627 237.843 29.1627C235.222 29.1627 233.155 30.1633 231.827 32.0903H231.753L231.495 29.5704H226.623C226.697 31.238 226.77 33.2762 226.77 35.6479V55.0292ZM232.38 37.4267C232.38 37.0932 232.417 36.7226 232.491 36.4261C232.86 34.7585 234.263 33.5726 235.85 33.5726C238.359 33.5726 239.651 35.7591 239.651 38.6494C239.651 41.7255 238.212 43.7636 235.776 43.7636C234.152 43.7636 232.86 42.6146 232.491 41.0954C232.417 40.7619 232.38 40.3544 232.38 39.9094V37.4267Z" fill="#063868"/>
<path d="M29.5963 62.8097C30.1031 62.8675 30.7021 62.9023 31.4163 62.9023C32.9253 62.9023 34.1233 62.5091 34.849 61.7803C35.5747 61.0633 35.9664 60.0224 35.9664 58.7501C35.9664 57.4893 35.5632 56.5872 34.8721 55.9509C34.1924 55.3146 33.1672 54.9792 31.7273 54.9792C30.9325 54.9792 30.2067 55.0488 29.5963 55.1414V62.8097ZM30.5984 55.8813C30.8634 55.8236 31.255 55.7773 31.7734 55.7773C33.8929 55.7773 34.9296 56.9456 34.9181 58.7845C34.9181 60.8897 33.7547 62.0927 31.6121 62.0927C31.2204 62.0927 30.8518 62.0812 30.5984 62.035V55.8813ZM39.6402 57.1077C38.0966 57.1077 36.8756 58.2063 36.8756 60.0801C36.8756 61.8499 38.0391 62.96 39.548 62.96C40.8958 62.96 42.324 62.0579 42.324 59.9876C42.324 58.2759 41.2413 57.1077 39.6402 57.1077ZM39.617 57.871C40.8151 57.871 41.2874 59.074 41.2874 60.0224C41.2874 61.2832 40.5618 62.1967 39.5941 62.1967C38.6035 62.1967 37.9009 61.2713 37.9009 60.0453C37.9009 58.9815 38.4192 57.871 39.617 57.871ZM43.6007 62.833H44.5913V59.4557C44.5913 59.282 44.6145 59.1084 44.672 58.9581C44.8335 58.4492 45.2939 57.9402 45.9276 57.9402C46.6996 57.9402 47.0911 58.588 47.0911 59.4786V62.833H48.0817V59.3746C48.0817 59.1895 48.1163 59.0044 48.1624 58.8656C48.3353 58.3681 48.7844 57.9402 49.3606 57.9402C50.1782 57.9402 50.5698 58.588 50.5698 59.6637V62.833H51.5607V59.5363C51.5607 57.5933 50.4662 57.1077 49.7289 57.1077C49.1991 57.1077 48.8304 57.2465 48.4964 57.5008C48.266 57.6744 48.047 57.9172 47.8745 58.2297H47.8513C47.6094 57.57 47.0336 57.1077 46.2731 57.1077C45.3518 57.1077 44.8335 57.6048 44.5223 58.1371H44.4877L44.4416 57.2347H43.5546C43.5892 57.6974 43.6007 58.1715 43.6007 58.7501V62.833ZM57.6885 60.2189C57.7003 60.1149 57.7232 59.9528 57.7232 59.7447C57.7232 58.7153 57.2395 57.1077 55.4194 57.1077C53.7951 57.1077 52.8046 58.4377 52.8046 60.1264C52.8046 61.8151 53.8298 62.9485 55.5459 62.9485C56.4329 62.9485 57.0434 62.7635 57.4006 62.6017L57.2277 61.8728C56.8476 62.035 56.41 62.1619 55.6841 62.1619C54.6707 62.1619 53.7951 61.5952 53.7719 60.2189H57.6885ZM53.7837 59.4901C53.8641 58.7845 54.3135 57.8362 55.3387 57.8362C56.479 57.8362 56.7554 58.8427 56.744 59.4901H53.7837ZM58.5869 62.5669C58.9784 62.7982 59.5429 62.9485 60.1534 62.9485C61.4783 62.9485 62.2385 62.2545 62.2385 61.2713C62.2385 60.4388 61.743 59.9528 60.7756 59.5826C60.0498 59.305 59.7158 59.097 59.7158 58.6342C59.7158 58.2178 60.0498 57.871 60.6488 57.871C61.1672 57.871 61.5705 58.0561 61.7891 58.1949L62.0427 57.4545C61.7316 57.2694 61.2361 57.1077 60.6717 57.1077C59.4739 57.1077 58.748 57.8476 58.748 58.7501C58.748 59.4209 59.2203 59.9761 60.2227 60.3344C60.9714 60.612 61.2593 60.8782 61.2593 61.3639C61.2593 61.8266 60.9139 62.1967 60.1766 62.1967C59.6697 62.1967 59.1399 61.9887 58.8402 61.7918L58.5869 62.5669ZM63.7761 55.8932V57.2347H62.912V58.0098H63.7761V61.0633C63.7761 61.7225 63.8797 62.22 64.1677 62.5206C64.4095 62.7982 64.7899 62.9485 65.2622 62.9485C65.6537 62.9485 65.9649 62.8908 66.1606 62.8097L66.1145 62.0464C65.9877 62.0812 65.792 62.1157 65.5269 62.1157C64.9625 62.1157 64.7667 61.7225 64.7667 61.0285V58.0098H66.2181V57.2347H64.7667V55.627L63.7761 55.8932ZM68.3729 62.833V57.2347H67.3591V62.833H68.3729ZM67.866 55.0255C67.4974 55.0255 67.2327 55.3031 67.2327 55.6618C67.2327 56.0087 67.4859 56.2863 67.8432 56.2863C68.2461 56.2863 68.4997 56.0087 68.4879 55.6618C68.4879 55.3031 68.2461 55.0255 67.866 55.0255ZM73.8604 61.8614C73.5725 61.9887 73.1924 62.139 72.6162 62.139C71.5106 62.139 70.6811 61.3409 70.6811 60.0453C70.6811 58.8771 71.3723 57.9287 72.6508 57.9287C73.2038 57.9287 73.5839 58.0561 73.8257 58.1949L74.0561 57.4083C73.7796 57.2694 73.2499 57.1192 72.6508 57.1192C70.8308 57.1192 69.6559 58.3681 69.6559 60.0916C69.6559 61.8036 70.75 62.9485 72.4318 62.9485C73.1806 62.9485 73.7682 62.7634 74.0333 62.6246L73.8604 61.8614ZM83.7573 62.833C83.2965 62.3355 82.8932 61.8962 82.4785 61.4564C83.0547 60.7742 83.3887 59.8025 83.5959 58.5765H82.6742C82.5245 59.5597 82.2827 60.3115 81.9255 60.8549C81.4304 60.3 80.6931 59.4438 80.0365 58.6805V58.6457C81.2689 58.0327 81.7415 57.3853 81.7415 56.5639C81.7415 55.5578 80.9924 54.91 80.0251 54.91C78.7348 54.91 78.0553 55.8813 78.0553 56.8301C78.0553 57.3853 78.2972 57.952 78.7001 58.4606V58.4954C77.8131 58.9815 77.1798 59.71 77.1798 60.7742C77.1798 61.9424 78.0553 62.96 79.5642 62.96C80.4166 62.96 81.1653 62.6942 81.8333 62.0694C82.133 62.3933 82.3402 62.6132 82.5592 62.833H83.7573ZM79.7371 62.1967C78.8041 62.1967 78.1475 61.5145 78.1475 60.6239C78.1475 59.8025 78.7348 59.305 79.1495 59.0392C80.0136 60.0338 80.8774 60.9822 81.3382 61.4912C80.9696 61.8962 80.4051 62.1967 79.7371 62.1967ZM79.9557 55.6041C80.5895 55.6041 80.8545 56.136 80.8545 56.6102C80.8545 57.2695 80.3476 57.6859 79.5642 58.1371C79.2302 57.7207 78.9766 57.2928 78.9766 56.7375C78.9766 56.136 79.3106 55.6041 79.9557 55.6041ZM87.1136 55.037V62.833H88.116V55.037H87.1136ZM89.9478 62.833H90.9613V59.4671C90.9613 59.2935 90.9845 59.1203 91.0306 58.9929C91.2035 58.4262 91.7218 57.952 92.3898 57.952C93.3457 57.952 93.6801 58.7038 93.6801 59.6059V62.833H94.6935V59.4901C94.6935 57.57 93.4958 57.1077 92.7238 57.1077C91.8022 57.1077 91.1574 57.6281 90.8809 58.1601H90.8577L90.8002 57.2347H89.9017C89.936 57.6974 89.9478 58.1715 89.9478 58.7501V62.833ZM96.5228 55.8932V57.2347H95.6587V58.0098H96.5228V61.0633C96.5228 61.7225 96.6264 62.22 96.9143 62.5206C97.1562 62.7982 97.5362 62.9485 98.0085 62.9485C98.4004 62.9485 98.7115 62.8908 98.9073 62.8097L98.8612 62.0464C98.7344 62.0812 98.5386 62.1157 98.2736 62.1157C97.7091 62.1157 97.5134 61.7225 97.5134 61.0285V58.0098H98.9648V57.2347H97.5134V55.627L96.5228 55.8932ZM104.519 60.2189C104.531 60.1149 104.554 59.9528 104.554 59.7447C104.554 58.7153 104.07 57.1077 102.25 57.1077C100.626 57.1077 99.635 58.4377 99.635 60.1264C99.635 61.8151 100.66 62.9485 102.377 62.9485C103.264 62.9485 103.874 62.7635 104.231 62.6017L104.059 61.8728C103.678 62.035 103.241 62.1619 102.515 62.1619C101.501 62.1619 100.626 61.5952 100.603 60.2189H104.519ZM100.614 59.4901C100.695 58.7845 101.144 57.8362 102.17 57.8362C103.31 57.8362 103.586 58.8427 103.575 59.4901H100.614ZM105.809 62.833H106.811V59.8488C106.811 59.6752 106.835 59.5134 106.857 59.3746C106.996 58.6113 107.503 58.0675 108.217 58.0675C108.355 58.0675 108.458 58.079 108.562 58.1023V57.1421C108.47 57.1192 108.39 57.1077 108.274 57.1077C107.595 57.1077 106.984 57.5819 106.731 58.3337H106.684L106.65 57.2347H105.763C105.798 57.7551 105.809 58.3218 105.809 58.9815V62.833ZM109.623 62.833H110.636V59.4671C110.636 59.2935 110.659 59.1203 110.705 58.9929C110.878 58.4262 111.397 57.952 112.065 57.952C113.021 57.952 113.355 58.7038 113.355 59.6059V62.833H114.369V59.4901C114.369 57.57 113.171 57.1077 112.399 57.1077C111.477 57.1077 110.832 57.6281 110.556 58.1601H110.533L110.475 57.2347H109.577C109.611 57.6974 109.623 58.1715 109.623 58.7501V62.833ZM120.021 62.833C119.952 62.4514 119.929 61.9768 119.929 61.4912V59.3975C119.929 58.2759 119.514 57.1077 117.809 57.1077C117.107 57.1077 116.438 57.3042 115.978 57.6048L116.208 58.2759C116.6 58.0213 117.141 57.8595 117.659 57.8595C118.8 57.8595 118.926 58.692 118.926 59.1547V59.2706C116.772 59.2587 115.575 59.9991 115.575 61.3524C115.575 62.1619 116.15 62.96 117.279 62.96C118.074 62.96 118.673 62.5669 118.984 62.1275H119.019L119.099 62.833H120.021ZM118.95 60.9474C118.95 61.0518 118.926 61.1673 118.892 61.2713C118.731 61.7455 118.27 62.2082 117.544 62.2082C117.026 62.2082 116.588 61.8962 116.588 61.2369C116.588 60.1493 117.844 59.9528 118.95 59.9761V60.9474ZM121.755 55.8932V57.2347H120.891V58.0098H121.755V61.0633C121.755 61.7225 121.858 62.22 122.146 62.5206C122.389 62.7982 122.769 62.9485 123.241 62.9485C123.632 62.9485 123.943 62.8908 124.139 62.8097L124.093 62.0464C123.966 62.0812 123.771 62.1157 123.506 62.1157C122.941 62.1157 122.745 61.7225 122.745 61.0285V58.0098H124.197V57.2347H122.745V55.627L121.755 55.8932ZM126.352 62.833V57.2347H125.338V62.833H126.352ZM125.845 55.0255C125.476 55.0255 125.211 55.3031 125.211 55.6618C125.211 56.0087 125.465 56.2863 125.822 56.2863C126.225 56.2863 126.478 56.0087 126.467 55.6618C126.467 55.3031 126.225 55.0255 125.845 55.0255ZM130.399 57.1077C128.855 57.1077 127.634 58.2063 127.634 60.0801C127.634 61.8499 128.798 62.96 130.307 62.96C131.655 62.96 133.083 62.0579 133.083 59.9876C133.083 58.2759 132 57.1077 130.399 57.1077ZM130.376 57.871C131.574 57.871 132.047 59.074 132.047 60.0224C132.047 61.2832 131.321 62.1967 130.353 62.1967C129.362 62.1967 128.66 61.2713 128.66 60.0453C128.66 58.9815 129.178 57.871 130.376 57.871ZM134.36 62.833H135.373V59.4671C135.373 59.2935 135.397 59.1203 135.443 58.9929C135.616 58.4262 136.134 57.952 136.802 57.952C137.758 57.952 138.092 58.7038 138.092 59.6059V62.833H139.106V59.4901C139.106 57.57 137.908 57.1077 137.136 57.1077C136.214 57.1077 135.569 57.6281 135.293 58.1601H135.27L135.212 57.2347H134.314C134.348 57.6974 134.36 58.1715 134.36 58.7501V62.833ZM144.758 62.833C144.689 62.4514 144.666 61.9768 144.666 61.4912V59.3975C144.666 58.2759 144.251 57.1077 142.546 57.1077C141.844 57.1077 141.176 57.3042 140.715 57.6048L140.945 58.2759C141.337 58.0213 141.878 57.8595 142.397 57.8595C143.537 57.8595 143.664 58.692 143.664 59.1547V59.2706C141.51 59.2587 140.311 59.9991 140.311 61.3524C140.311 62.1619 140.888 62.96 142.017 62.96C142.811 62.96 143.41 62.5669 143.721 62.1275H143.756L143.837 62.833H144.758ZM143.687 60.9474C143.687 61.0518 143.664 61.1673 143.629 61.2713C143.468 61.7455 143.007 62.2082 142.282 62.2082C141.763 62.2082 141.325 61.8962 141.325 61.2369C141.325 60.1493 142.581 59.9528 143.687 59.9761V60.9474ZM146.307 62.833H147.32V54.6209H146.307V62.833Z" fill="#063868"/>
<path d="M158.174 63.1499C159.775 63.1499 161.074 61.844 161.074 60.233C161.074 58.622 159.775 57.3161 158.174 57.3161C156.571 57.3161 155.273 58.622 155.273 60.233C155.273 61.844 156.571 63.1499 158.174 63.1499Z" fill="#D91D18"/>
<path d="M169.789 62.8453C170.123 62.8915 170.653 62.9378 171.344 62.9378C172.611 62.9378 173.487 62.7065 174.028 62.2093C174.42 61.8277 174.685 61.3187 174.685 60.648C174.685 59.4912 173.821 58.8782 173.084 58.6931V58.6698C173.901 58.3692 174.397 57.71 174.397 56.9581C174.397 56.3452 174.155 55.8825 173.752 55.5819C173.268 55.1884 172.623 55.0148 171.62 55.0148C170.918 55.0148 170.226 55.0844 169.789 55.1769V62.8453ZM170.791 55.8591C170.952 55.8247 171.217 55.7899 171.678 55.7899C172.692 55.7899 173.383 56.1486 173.383 57.0622C173.383 57.814 172.761 58.3692 171.701 58.3692H170.791V55.8591ZM170.791 59.1325H171.62C172.715 59.1325 173.625 59.5723 173.625 60.6361C173.625 61.7696 172.669 62.1516 171.632 62.1516C171.275 62.1516 170.987 62.1397 170.791 62.1053V59.1325ZM175.305 57.2706L177.367 62.4288C177.413 62.5562 177.437 62.6372 177.437 62.695C177.437 62.7527 177.402 62.8338 177.356 62.9378C177.126 63.4583 176.78 63.8517 176.504 64.0713C176.204 64.3259 175.87 64.4877 175.617 64.5688L175.87 65.4246C176.124 65.3783 176.619 65.2051 177.114 64.7653C177.805 64.1638 178.3 63.1806 179.026 61.261L180.547 57.2706H179.475L178.37 60.5554C178.231 60.96 178.116 61.3879 178.013 61.7233H177.989C177.897 61.3879 177.759 60.9485 177.632 60.5784L176.411 57.2706H175.305ZM187.949 60.4166L188.779 62.8686H189.85L187.201 55.0729H185.991L183.353 62.8686H184.39L185.196 60.4166H187.949ZM185.403 59.63L186.164 57.3746C186.314 56.9004 186.44 56.4262 186.555 55.9635H186.578C186.694 56.4144 186.809 56.8771 186.982 57.3861L187.742 59.63H185.403ZM191.939 62.8686V57.2706H190.925V62.8686H191.939ZM191.432 55.061C191.064 55.061 190.799 55.3387 190.799 55.6974C190.799 56.0442 191.052 56.3218 191.409 56.3218C191.812 56.3218 192.066 56.0442 192.054 55.6974C192.054 55.3387 191.812 55.061 191.432 55.061ZM193.625 62.8686H194.628V59.8843C194.628 59.7111 194.65 59.5489 194.674 59.4101C194.812 58.6468 195.319 58.1031 196.033 58.1031C196.171 58.1031 196.275 58.1149 196.378 58.1379V57.178C196.286 57.1547 196.206 57.1432 196.09 57.1432C195.411 57.1432 194.8 57.6174 194.547 58.3692H194.501L194.466 57.2706H193.579C193.614 57.791 193.625 58.3577 193.625 59.017V62.8686ZM205.929 62.8686C205.468 62.3711 205.065 61.9317 204.65 61.4919C205.226 60.8097 205.56 59.838 205.767 58.612H204.846C204.696 59.5952 204.454 60.347 204.097 60.8908C203.602 60.3355 202.864 59.4797 202.208 58.7161V58.6816C203.44 58.0686 203.913 57.4209 203.913 56.5995C203.913 55.5934 203.164 54.9456 202.196 54.9456C200.906 54.9456 200.227 55.9172 200.227 56.8656C200.227 57.4209 200.469 57.9876 200.872 58.4966V58.531C199.985 59.017 199.351 59.7455 199.351 60.8097C199.351 61.978 200.227 62.9959 201.736 62.9959C202.588 62.9959 203.337 62.7298 204.005 62.1053C204.304 62.4288 204.512 62.6487 204.731 62.8686H205.929ZM201.908 62.2323C200.975 62.2323 200.319 61.5501 200.319 60.6594C200.319 59.838 200.906 59.3409 201.321 59.0748C202.185 60.0694 203.049 61.0178 203.51 61.5267C203.141 61.9317 202.576 62.2323 201.908 62.2323ZM202.127 55.6396C202.761 55.6396 203.026 56.1715 203.026 56.6457C203.026 57.305 202.519 57.7214 201.736 58.1727C201.402 57.7562 201.148 57.3283 201.148 56.7731C201.148 56.1715 201.482 55.6396 202.127 55.6396ZM215.195 58.7742H212.637V59.5837H214.215V61.9084C213.985 62.0242 213.536 62.1168 212.879 62.1168C211.071 62.1168 209.884 60.9485 209.884 58.9707C209.884 57.0159 211.117 55.8362 213.006 55.8362C213.789 55.8362 214.308 55.9865 214.722 56.1715L214.964 55.3505C214.63 55.1884 213.927 54.9918 213.029 54.9918C210.426 54.9918 208.836 56.692 208.824 59.017C208.824 60.2315 209.239 61.2724 209.907 61.9202C210.667 62.6487 211.635 62.9497 212.81 62.9497C213.858 62.9497 214.745 62.6835 215.195 62.5214V58.7742ZM216.698 62.8686H217.7V59.8843C217.7 59.7111 217.723 59.5489 217.746 59.4101C217.884 58.6468 218.391 58.1031 219.105 58.1031C219.243 58.1031 219.347 58.1149 219.451 58.1379V57.178C219.358 57.1547 219.278 57.1432 219.163 57.1432C218.483 57.1432 217.872 57.6174 217.619 58.3692H217.573L217.538 57.2706H216.651C216.686 57.791 216.698 58.3577 216.698 59.017V62.8686ZM222.715 57.1432C221.172 57.1432 219.951 58.2419 219.951 60.1157C219.951 61.8854 221.114 62.9959 222.623 62.9959C223.971 62.9959 225.399 62.0935 225.399 60.0231C225.399 58.3115 224.316 57.1432 222.715 57.1432ZM222.692 57.9065C223.89 57.9065 224.362 59.1096 224.362 60.0579C224.362 61.3187 223.636 62.2323 222.669 62.2323C221.678 62.2323 220.976 61.3072 220.976 60.0809C220.976 59.017 221.494 57.9065 222.692 57.9065ZM231.341 57.2706H230.327V60.7057C230.327 60.8908 230.293 61.0759 230.235 61.2262C230.051 61.677 229.578 62.1516 228.899 62.1516C227.977 62.1516 227.655 61.4342 227.655 60.3703V57.2706H226.641V60.5436C226.641 62.5099 227.689 62.9959 228.565 62.9959C229.556 62.9959 230.143 62.4059 230.408 61.9546H230.431L230.489 62.8686H231.387C231.352 62.4288 231.341 61.9202 231.341 61.3417V57.2706ZM233.02 62.8686H234.034V59.5027C234.034 59.3291 234.057 59.1558 234.103 59.0285C234.276 58.4618 234.794 57.9876 235.462 57.9876C236.418 57.9876 236.752 58.7394 236.752 59.6415V62.8686H237.766V59.526C237.766 57.6059 236.568 57.1432 235.797 57.1432C234.875 57.1432 234.23 57.6637 233.953 58.1956H233.93L233.872 57.2706H232.974C233.009 57.7329 233.02 58.2071 233.02 58.7857V62.8686ZM243.211 54.6565V57.9991H243.188C242.935 57.5478 242.359 57.1432 241.506 57.1432C240.147 57.1432 238.995 58.2882 239.007 60.1505C239.007 61.8506 240.043 62.9959 241.391 62.9959C242.301 62.9959 242.981 62.5214 243.292 61.8969H243.315L243.361 62.8686H244.271C244.237 62.4869 244.225 61.9202 244.225 61.4227V54.6565H243.211ZM243.211 60.5206C243.211 60.6824 243.2 60.8212 243.165 60.96C242.981 61.7233 242.359 62.1745 241.679 62.1745C240.585 62.1745 240.032 61.2376 240.032 60.1042C240.032 58.8667 240.654 57.9413 241.702 57.9413C242.463 57.9413 243.015 58.4732 243.165 59.121C243.2 59.2484 243.211 59.4216 243.211 59.5489V60.5206Z" fill="#063868"/>
<path d="M48.6328 34.3454L38.8018 34.3943V35.6558C38.7182 38.1015 41.0632 38.4217 41.0632 38.4217H44.1599C44.1599 38.4217 44.0755 42.2529 40.3749 43.2261C36.6742 44.1993 33.6103 42.6535 32.4609 39.5382C31.311 36.4228 31.3682 32.2403 33.5421 29.105C35.7165 25.9697 41.8753 27.1179 42.8814 29.2019C43.8875 31.286 45.1 30.8488 45.8797 30.8518C46.6594 30.8547 48.6324 30.8518 48.6324 30.8518C48.6324 30.8518 48.1539 27.5606 45.4373 25.2715C42.7207 22.9821 38.3134 22.6285 35.7537 23.0394C28.9019 24.6515 26.9981 29.3778 26.611 35.7531C26.6914 39.2505 27.5865 41.1595 27.8398 41.6248C30.8469 46.8145 33.7593 47.607 38.2113 47.6907C42.6632 47.7743 44.7486 44.3422 44.7486 44.3422C44.7486 44.3422 44.6723 43.8554 45.0926 45.5552C45.5129 47.2557 47.0587 47.108 47.0587 47.108H48.7312L48.6328 34.3454Z" fill="#D91D18"/>
<path d="M10.3367 17.1601C19.1369 11.4566 47.3989 8.40714 47.3989 8.40714C28.8595 8.41528 0.460014 14.8136 0.00619651 23.5936C-0.447619 32.3743 24.1768 30.8384 24.1768 30.8384C24.1768 30.8384 15.8356 30.1873 13.9927 29.9471C1.09595 27.4033 1.53612 22.8632 10.3367 17.1601Z" fill="#D91D18"/>
<path d="M51.3476 13.886C-4.16223 19.0379 21.2128 29.1368 21.2128 29.1368C3.04427 18.9161 51.3476 13.886 51.3476 13.886Z" fill="#D91D18"/>
<path d="M17.1436 18.6119C24.2601 14.8621 48.8732 10.5593 48.8732 10.5593C-14.1993 19.28 15.9502 29.2078 15.9502 29.2078C8.04621 24.4508 10.0266 22.3613 17.1436 18.6119Z" fill="#D91D18"/>
<path d="M27.8258 21.6668C33.1791 19.22 51.3517 17.0712 51.3517 17.0712C4.87249 20.8976 26.5366 29.34 26.5366 29.34C20.9419 25.5569 22.4725 24.114 27.8258 21.6668Z" fill="#D91D18"/>
<path d="M70.8204 31.2497L70.5074 31.35L68.8415 31.4988L68.3707 32.2532L68.0286 32.1448L66.7025 30.9443L66.5101 30.3202L66.2528 29.6539L65.4192 28.9032L64.4364 28.7104L64.4132 29.1616L65.3768 30.1059L65.848 30.663L65.3178 30.9413L64.8865 30.8133L64.2403 30.543L64.2616 30.0189L63.4137 29.6691L63.1321 30.8995L62.2772 31.0942L62.3616 31.7809L63.476 31.9959L63.6685 30.8991L64.5875 31.0357L65.0148 31.2871H65.7005L66.1698 32.231L67.414 33.4981L67.3222 33.9904L66.3191 33.8627L64.5857 34.7418L63.337 36.2451L63.1745 36.9114H62.7262L61.8915 36.5246L61.0812 36.9114L61.2825 37.7706L61.6353 37.3619L62.2558 37.3427L62.2126 38.1145L62.7262 38.2655L63.2397 38.8445L64.078 38.6072L65.0354 38.759L66.1473 39.0588L66.7021 39.1243L67.6437 40.1978L69.4604 41.2705L68.2855 43.5245L67.0446 44.1027L66.5742 45.3912L64.7792 46.5935L64.5879 47.2883C69.1766 46.1782 72.5892 42.0401 72.5892 37.0925C72.59 34.9303 71.9371 32.9188 70.8204 31.2497Z" fill="#D91D18"/>
<path d="M63.3374 42.5791L62.5765 41.1617L63.2751 39.6999L62.5765 39.4897L61.7913 38.6986L60.0527 38.307L59.4757 37.0932V37.8135H59.2214L57.7231 35.7735V34.0977L56.6245 32.3043L54.8808 32.6167H53.7055L53.1142 32.2277L53.8681 31.6269L53.116 31.8016C52.2091 33.3563 51.6805 35.1601 51.6805 37.0925C51.6805 42.89 56.3609 47.5918 62.1356 47.5918C62.5802 47.5918 63.0163 47.5526 63.448 47.5L63.3389 46.2282C63.3389 46.2282 63.8189 44.3392 63.8189 44.2748C63.817 44.21 63.3374 42.5791 63.3374 42.5791Z" fill="#D91D18"/>
<path d="M55.5654 29.9778L57.4227 29.7176L58.2791 29.2467L59.2424 29.5254L60.7812 29.4399L61.3084 28.6074L62.0778 28.7348L63.9443 28.5586L64.4597 27.9889L65.1844 27.5029L66.2115 27.658L66.5857 27.6006C65.2335 26.9617 63.729 26.5923 62.1345 26.5923C58.8896 26.5923 55.9879 28.0781 54.072 30.4098H54.0768L55.5654 29.9778ZM62.5769 27.6361L63.6446 27.0461L64.3303 27.4436L63.3375 28.2025L62.39 28.2976L61.9631 28.0196L62.5769 27.6361ZM59.4142 27.7224L59.8857 27.9197L60.5021 27.7224L60.8387 28.3076L59.4139 28.6833L58.7289 28.281C58.7285 28.281 59.3987 27.8479 59.4142 27.7224Z" fill="#D91D18"/>
<path d="M64.9521 16.2628C64.9521 16.2628 57.0504 12.9601 53.6469 11.4676L50.701 17.0352L61.3773 23.1528L64.9521 16.2628Z" fill="#D91D18" stroke="white"/>
<path d="M62.71 2.12964C62.71 2.12964 55.2082 6.02909 51.9242 7.66456L54.2449 13.4343L65.6268 9.21618L62.71 2.12964Z" fill="#D91D18" stroke="white"/>
<path d="M66.6727 4.93329C66.6727 4.93329 58.49 7.04064 54.924 7.89343L55.8943 14.0391L67.9291 12.4966L66.6727 4.93329Z" fill="#D91D18" stroke="white"/>
<path d="M69.0295 11.6287C69.0295 11.6287 59.6509 9.58904 55.5971 8.63345L53.4685 15.3711L66.4732 19.9523L69.0295 11.6287Z" fill="#D91D18" stroke="white"/>
</svg>
